<?xml version="1.0" encoding="UTF-8" standalone="no"?>
<!-- Created with Inkscape (http://www.inkscape.org/) -->

<svg
   xmlns:dc="http://purl.org/dc/elements/1.1/"
   xmlns:cc="http://creativecommons.org/ns#"
   xmlns:rdf="http://www.w3.org/1999/02/22-rdf-syntax-ns#"
   xmlns:svg="http://www.w3.org/2000/svg"
   xmlns="http://www.w3.org/2000/svg"
   xmlns:sodipodi="http://sodipodi.sourceforge.net/DTD/sodipodi-0.dtd"
   xmlns:inkscape="http://www.inkscape.org/namespaces/inkscape"
   version="1.1"
   id="svg869"
   width="1193"
   height="392"
   viewBox="0 0 1193 392"
   sodipodi:docname="Eclipse_Foundation_Logo.svg"
   inkscape:version="0.92.2 2405546, 2018-03-11">
  <metadata
     id="metadata875">
    <rdf:RDF>
      <cc:Work
         rdf:about="">
        <dc:format>image/svg+xml</dc:format>
        <dc:type
           rdf:resource="http://purl.org/dc/dcmitype/StillImage" />
        <dc:title></dc:title>
      </cc:Work>
    </rdf:RDF>
  </metadata>
  <defs
     id="defs873">
    <filter
       inkscape:label="Sharpen More"
       inkscape:menu="Image Effects"
       inkscape:menu-tooltip="Sharpen edges and boundaries within the object, force=0.3"
       style="color-interpolation-filters:sRGB;"
       id="filter909">
      <feConvolveMatrix
         targetY="1"
         targetX="1"
         in="SourceGraphic"
         divisor="1"
         kernelMatrix="0 -0.3 0 -0.3 2.2 -0.3 0 -0.3 0"
         order="3 3"
         result="result1"
         id="feConvolveMatrix905" />
      <feBlend
         in2="SourceGraphic"
         mode="normal"
         result="fbSourceGraphic"
         id="feBlend907" />
      <feColorMatrix
         result="fbSourceGraphicAlpha"
         in="fbSourceGraphic"
         values="0 0 0 -1 0 0 0 0 -1 0 0 0 0 -1 0 0 0 0 1 0"
         id="feColorMatrix911" />
      <feConvolveMatrix
         id="feConvolveMatrix913"
         targetY="1"
         targetX="1"
         in="fbSourceGraphic"
         divisor="1"
         kernelMatrix="0 -0.3 0 -0.3 2.2 -0.3 0 -0.3 0"
         order="3 3"
         result="result1" />
      <feBlend
         in2="fbSourceGraphic"
         id="feBlend915"
         mode="normal"
         result="result2" />
    </filter>
  </defs>
  <sodipodi:namedview
     pagecolor="#ffffff"
     bordercolor="#666666"
     borderopacity="1"
     objecttolerance="10"
     gridtolerance="10"
     guidetolerance="10"
     inkscape:pageopacity="0"
     inkscape:pageshadow="2"
     inkscape:window-width="1920"
     inkscape:window-height="1020"
     id="namedview871"
     showgrid="false"
     inkscape:zoom="0.64724275"
     inkscape:cx="596.5"
     inkscape:cy="152.30037"
     inkscape:window-x="0"
     inkscape:window-y="0"
     inkscape:window-maximized="1"
     inkscape:current-layer="svg869" />
  <g
     id="g879"
     transform="translate(4.3699634,-1.0924933)"
     style="filter:url(#filter909)">
    <path
       style="fill:#fad1a2"
       d="m 225.92935,385.69521 c -10.69657,-3.03055 -18.07195,-9.55893 -23.32671,-20.64784 -2.87431,-6.06554 -3.09874,-7.32008 -3.0496,-17.04737 0.0429,-8.48935 0.48997,-11.60769 2.33478,-16.28458 3.19711,-8.10513 11.29676,-16.60977 19.33015,-20.29665 5.6429,-2.58977 7.35029,-2.88491 16.78203,-2.90093 9.37175,-0.0159 11.12725,0.27601 16.33751,2.7169 3.21062,1.5041 7.26062,3.92549 9,5.38087 11.10189,9.2892 16.27065,26.9997 12.26756,42.0342 -3.14734,11.82057 -10.13344,20.41366 -20.42755,25.12646 -6.70942,3.07167 -21.70659,4.05562 -29.24817,1.91894 z m 22.75628,-16.12915 c 16.17402,-7.53054 16.3871,-35.40609 0.33493,-43.81606 -15.12259,-7.92295 -31.94838,1.46143 -33.73973,18.81792 -1.63053,15.7984 7.99512,27.41254 22.71917,27.41254 3.71614,0 7.18189,-0.78308 10.68563,-2.4144 z M 346.5,385.65852 c -6.80228,-2.2488 -10.06679,-4.38282 -14.86007,-9.71411 -7.14315,-7.9449 -7.86243,-11.33326 -8.38985,-39.52277 -0.5224,-27.92182 -0.66661,-27.43216 8.07135,-27.40633 8.55867,0.0253 8.11407,-1.37714 8.67857,27.37626 0.54932,27.98021 0.53934,27.93553 7.37966,33.04257 3.94151,2.94276 15.28733,2.94516 19.23167,0.004 6.84953,-5.10734 6.83925,-5.06137 7.38867,-33.04664 0.5645,-28.7534 0.1199,-27.35095 8.67857,-27.37626 8.74488,-0.0259 8.58537,-0.5752 8.10259,27.90503 -0.46833,27.62699 -1.31105,31.66562 -8.31491,39.84806 -5.45284,6.37042 -12.99532,9.57061 -23.38541,9.92216 -5.21548,0.17647 -10.14962,-0.22829 -12.58084,-1.03204 z m 621.42935,0.0299 c -6.63448,-1.86976 -13.15324,-5.99977 -17.7971,-11.27548 -11.41985,-12.97363 -12.1106,-37.11757 -1.46108,-51.0692 4.92795,-6.45597 6.73994,-7.92969 14.32883,-11.65388 6.05451,-2.9712 7.21963,-3.18982 17,-3.18982 9.69282,0 10.99968,0.23932 17,3.11311 14.8012,7.08888 23.0185,21.80631 21.712,38.88689 -1.2582,16.44858 -10.2413,29.31783 -23.90738,34.24979 -5.69544,2.05542 -21.01412,2.59041 -26.87527,0.93859 z m 22.75628,-16.12232 c 17.20257,-8.00944 15.95317,-37.55383 -1.90351,-45.01301 -9.04758,-3.77939 -21.93313,-0.33988 -27.0862,7.23006 -6.25378,9.1869 -6.10818,23.21171 0.33492,32.2602 5.3566,7.52265 18.79611,10.1129 28.65479,5.52275 z M 100.75,384.9199 C 99.134032,383.97869 99,381.1116 99,347.48549 c 0,-34.97911 0.07628,-36.45594 1.93426,-37.45031 2.98425,-1.59712 49.21068,-1.3809 51.42815,0.24055 1.41117,1.03187 1.68664,2.51332 1.44113,7.75 L 153.5,324.5 l -19,0.5 -19,0.5 -0.2886,8.72729 -0.2886,8.72729 18.2886,0.27271 L 151.5,343.5 v 7 7 l -18,0.5 -18,0.5 -0.26957,12.5 c -0.22226,10.306 -0.56297,12.7194 -1.94113,13.75 -1.99909,1.49493 -10.07647,1.60437 -12.5393,0.1699 z m 341.82143,-0.49133 C 441.20273,383.05987 441,378.34251 441,347.86283 c 0,-22.21012 0.37818,-35.70094 1.03518,-36.92857 C 442.86539,309.383 444.15593,309 448.55273,309 h 5.48236 l 16.65365,21 c 9.15951,11.55 17.02661,21 17.48245,21 0.45585,0 0.82881,-9.17686 0.82881,-20.39301 0,-17.67327 0.21096,-20.47396 1.58179,-21 2.77367,-1.06436 11.97358,-0.65162 13.21821,0.59301 0.88921,0.88921 1.2,10.59218 1.2,37.46482 0,35.84596 -0.0243,36.27783 -2.1053,37.39153 -1.15791,0.6197 -3.582,0.84969 -5.38686,0.5111 -2.85639,-0.53586 -5.59596,-3.59453 -21.1447,-23.6076 L 458.5,338.96788 458,361.522 c -0.41185,18.57769 -0.76446,22.72102 -2,23.50075 -2.49802,1.57646 -11.66348,1.17091 -13.42857,-0.59418 z M 554.75,384.9199 c -1.61574,-0.94108 -1.75,-3.80045 -1.75,-37.26959 0,-26.86135 0.3108,-36.56111 1.2,-37.45031 1.55251,-1.55251 29.0847,-1.63405 37.32613,-0.11054 11.84053,2.18884 21.0025,9.33361 26.17312,20.41054 2.53429,5.42916 2.80075,7.04654 2.80075,17 0,9.8214 -0.28505,11.60806 -2.66041,16.67515 -5.55882,11.85801 -15.17095,18.8693 -28.51348,20.79833 -8.91593,1.28904 -32.33327,1.25276 -34.57611,-0.0536 z m 35.9573,-16.42562 c 6.18853,-1.83779 11.66291,-7.45058 13.3501,-13.68761 2.73863,-10.12388 -1.21989,-22.25768 -8.79855,-26.96964 C 591.91352,325.7571 590.28985,325.5 580.5,325.5 h -11 l -0.27097,20.97416 c -0.14903,11.53579 -0.0507,21.54829 0.21861,22.25 0.69693,1.81616 14.88656,1.66273 21.25966,-0.22988 z m 70.5427,16.84344 c -0.6875,-0.27741 -1.25,-1.1829 -1.25,-2.01219 0,-2.08575 31.06661,-71.24929 32.76746,-72.95014 2.14547,-2.14546 14.50041,-1.86386 16.43499,0.37461 1.69372,1.95977 32.80688,71.10154 32.80118,72.89301 -0.005,1.66124 -2.4739,2.35699 -8.36291,2.35699 -6.6465,0 -8.83864,-1.59612 -11.62674,-8.46556 L 719.76771,372 h -18.82778 -18.82778 l -2.71502,6.04988 c -1.49327,3.32744 -3.51392,6.47744 -4.49034,7 -1.83068,0.97976 -11.44011,1.18229 -13.65679,0.28784 z M 712,355.20482 c 0,-1.13785 -9.96453,-23.55053 -10.88357,-24.47984 C 700.38993,329.99038 690,352.59008 690,354.90493 690,355.63199 693.6967,356 701,356 c 6.05,0 11,-0.35783 11,-0.79518 z M 793.69789,384.75 c -1.50225,-1.11484 -1.71214,-4.43977 -1.94113,-30.75 L 791.5,324.5 l -11,-0.5 -11,-0.5 -0.30184,-6.40894 c -0.20962,-4.45064 0.0959,-6.66126 1,-7.23469 2.18289,-1.38459 59.19691,-1.0613 60.60184,0.34363 1.32427,1.32427 1.61898,10.59248 0.39792,12.51401 -0.50858,0.80031 -4.50734,1.31146 -11.73469,1.5 L 808.5,324.5 808.24324,354 c -0.29027,33.35113 0.0578,32 -8.24324,32 -2.53976,0 -5.37571,-0.5625 -6.30211,-1.25 z m 83.87354,-0.32143 C 876.20273,383.05987 876,378.34251 876,347.86283 c 0,-22.21012 0.37818,-35.70094 1.03518,-36.92857 C 877.89386,309.32981 879.16667,309 884.5,309 c 5.33333,0 6.60614,0.32981 7.46482,1.93426 0.657,1.22763 1.03518,14.71845 1.03518,36.92857 0,40.0806 0.43315,38.13717 -8.5,38.13717 -3.5368,0 -5.89111,-0.53397 -6.92857,-1.57143 z m 189.99997,0 c -1.3687,-1.3687 -1.5714,-6.08606 -1.5714,-36.56574 0,-22.21012 0.3782,-35.70094 1.0352,-36.92857 0.8227,-1.53725 2.1184,-1.93426 6.3129,-1.93426 6.3694,0 5.0601,-1.26952 25.26,24.49213 l 14.8919,18.99213 0.2713,-20.41528 c 0.1727,-12.99897 0.6712,-20.89729 1.3724,-21.74213 1.3974,-1.68373 12.0009,-1.78223 13.6563,-0.12685 0.8892,0.88921 1.2,10.59218 1.2,37.46482 0,35.84596 -0.024,36.27783 -2.1053,37.39153 -1.1579,0.6197 -3.5528,0.85518 -5.3219,0.52329 -2.7698,-0.51963 -5.6372,-3.72116 -20.6447,-23.05094 -9.5855,-12.34612 -17.7656,-22.46577 -18.1781,-22.4881 -0.4125,-0.0223 -0.75,9.84357 -0.75,21.92422 0,20.69251 -0.112,22.02478 -1.9343,23 -3.0335,1.62349 -11.6781,1.27997 -13.4943,-0.53625 z M 330.05815,267.87829 C 297.89472,264.15171 272.45214,244.80216 261.97788,216.10199 247.43589,176.256 260.43244,130.67587 292.33856,109.62422 308.02314,99.275545 318.95563,95.988709 340,95.294879 c 16.1903,-0.533791 23.89597,0.608657 35.63507,5.283281 C 388.25874,105.60502 405,117.21703 405,120.94615 405,123.07526 386.72527,141 384.5546,141 c -0.84434,0 -4.40159,-1.96243 -7.905,-4.36095 -9.17309,-6.28015 -17.01605,-8.75214 -29.6496,-9.34514 -18.40232,-0.86377 -33.13691,4.51763 -43.38913,15.8467 -23.96108,26.47786 -16.98988,73.59945 13.00626,87.91529 20.44505,9.75752 45.83019,7.17216 63.72931,-6.49054 C 382.91541,222.60441 385.35895,221 385.77652,221 387.30876,221 407,241.58719 407,243.18915 c 0,4.3618 -18.78596,16.34947 -32.5,20.73886 -14.30976,4.58005 -28.28505,5.82227 -44.44185,3.95028 z m 549.98118,0.0142 c -20.53547,-3.12917 -37.49738,-13.40132 -47.01597,-28.47294 -5.33298,-8.44418 -6.21163,-10.81454 -4.70927,-12.70431 C 829.79002,224.85875 851.08615,214 853.2512,214 c 0.87212,0 2.59305,1.6875 3.82428,3.75 5.10404,8.55003 12.89181,14.52267 23.92452,18.34831 9.62784,3.33851 28.66397,3.34989 38.35346,0.023 11.1029,-3.81225 17.68076,-11.69764 17.619,-21.12126 -0.0269,-4.10468 -3.51802,-10.5516 -7.25905,-13.40502 -6.22602,-4.74882 -11.72638,-6.22684 -39.41869,-10.59233 -21.62826,-3.40955 -34.66687,-8.64888 -43.73646,-17.57471 -6.62397,-6.51898 -10.29883,-14.13207 -11.80294,-24.45174 -3.84294,-26.36637 12.1222,-46.56238 42.78512,-54.123482 18.03926,-4.44826 43.99389,-2.507265 59.55639,4.453872 11.92295,5.33316 27.49373,20.56396 26.69997,26.117 -0.21998,1.53896 -3.42507,3.68065 -12.38275,8.27434 l -12.08595,6.19792 -5.104,-4.86818 c -6.00854,-5.73094 -15.23567,-10.37343 -24.00799,-12.07927 -7.81029,-1.51876 -21.98896,-0.72901 -28.55447,1.59049 -10.10034,3.56831 -16.27678,13.12687 -13.80757,21.36837 2.61714,8.73523 11.11545,12.55147 35.74301,16.0507 27.69464,3.93503 41.89009,8.9695 52.19697,18.51185 C 965.46563,189.42399 970,200.44561 970,215 c 0,25.5272 -15.42745,43.60462 -43.62184,51.11478 -9.14496,2.43594 -35.40724,3.44345 -46.33883,1.77772 z M 100.24415,264.17646 C 99.24957,263.54153 99.041525,246.2241 99.244148,180.93737 L 99.5,98.5 h 62 62 v 15.5 15.5 l -45.5,0.5 -45.5,0.5 v 17.5 17.5 l 44,0.5 44,0.5 v 15 15 l -44,0.5 -44,0.5 v 17 17 l 45.5,0.5 45.5,0.5 v 16 16 l -61,0.23909 c -33.55,0.1315 -61.56513,-0.12168 -62.25585,-0.56263 z m 335.79103,-1.11072 c -1.24946,-2.33464 -1.43897,-161.88121 -0.19461,-163.84202 0.6139,-0.967355 4.66456,-1.209406 16.73469,-1 L 468.5,98.5 469,166 l 0.5,67.5 40.91122,0.26135 c 28.17133,0.17997 41.32811,0.60735 42.25,1.37245 1.64899,1.36854 1.90519,24.93934 0.3036,27.93194 C 551.95981,264.94362 550.25554,265 494.5,265 c -55.75554,0 -57.45981,-0.0564 -58.46482,-1.93426 z m 153.20897,1.10631 c -0.99461,-0.63146 -1.20263,-17.9461 -1,-83.23468 L 588.5,98.5 h 16 16 l 0.25585,82.43737 c 0.20263,65.28858 -0.005,82.60322 -1,83.23468 -0.69072,0.43853 -7.55585,0.79732 -15.25585,0.79732 -7.7,0 -14.56513,-0.35879 -15.25585,-0.79732 z M 663.46031,263.75 c -0.2623,-0.6875 -0.36068,-38.15 -0.21861,-83.25 L 663.5,98.5 707,98.222624 c 48.91775,-0.311921 52.21506,0.01772 65.21101,6.519326 28.13152,14.07363 39.1056,52.02057 23.59025,81.572 -4.58123,8.72567 -14.64086,18.57295 -23.56397,23.06655 -12.00938,6.04783 -16.445,6.7256 -47.98729,7.33255 L 696,217.25664 v 23.26469 c 0,20.29187 -0.20213,23.34226 -1.58179,23.87168 -0.86998,0.33385 -8.0841,0.60699 -16.03138,0.60699 -10.63866,0 -14.57538,-0.32968 -14.92652,-1.25 z m 90.28133,-80.64016 c 5.85195,-2.62243 11.43204,-8.19641 13.74345,-13.7284 5.66516,-13.55864 0.27591,-29.86817 -11.98509,-36.27056 -4.98236,-2.60167 -5.09616,-2.61197 -32.25,-2.91966 L 696,129.88244 v 27.39211 c 0,15.06567 0.3375,27.72992 0.75,28.14279 0.4125,0.41286 12.225,0.59109 26.25,0.39605 24.20371,-0.33659 25.76646,-0.47402 30.74164,-2.70355 z m 253.50246,81.06221 c -0.9946,-0.63146 -1.2026,-17.9461 -1,-83.23468 L 1006.5,98.5 l 61.9362,-0.257698 c 48.8869,-0.203403 62.1045,0.0073 62.7347,1 1.0342,1.628948 1.0441,27.870988 0.011,29.497368 -0.6035,0.95013 -11.4025,1.30048 -46.2347,1.5 L 1039.5,130.5 v 17.5 17.5 l 44,0.5 44,0.5 v 15 15 l -44,0.5 -44,0.5 v 17 17 l 44.9101,0.26041 c 31.1295,0.1805 45.3212,0.60163 46.25,1.37244 1.6523,1.37132 1.9125,26.92871 0.3047,29.93289 -1.0061,1.88 -2.7382,1.93383 -61.75,1.91895 -33.3931,-0.008 -61.2799,-0.37411 -61.9707,-0.81264 z M 69.126492,260.46312 C 57.342744,253.76102 39.742224,236.45934 30.507672,222.5 19.625277,206.04972 11.711835,186.55911 8.3799569,168 6.1505882,155.58205 6.1168382,132.64604 8.3103119,120.67036 17.480943,70.601568 52.189492,29.571133 99.311593,13.093921 115.73466,7.3512566 126.49863,5.6306503 146,5.6308377 c 19.00019,1.826e-4 28.85942,1.5319342 44.71367,6.9468103 14.10761,4.818325 34.09955,15.942465 32.15177,17.890247 -0.2506,0.250598 -5.16034,-1.067744 -10.91054,-2.929649 C 193.50332,21.56365 186.5427,20.499526 166,20.512761 c -14.24434,0.0092 -20.45531,0.437887 -27,1.863665 C 110.16857,28.657428 88.451265,40.355474 68.403369,60.403369 41.643897,87.162842 28.656283,118.53717 28.623523,156.5 c -0.03145,36.43981 12.978393,69.5059 37.868498,96.24738 4.222016,4.53606 7.526,8.68744 7.342186,9.22529 -0.183814,0.53785 -2.302286,-0.14145 -4.707715,-1.50955 z M 1146.6664,122.71125 c -1.2124,-0.91221 -1.6786,-3.29933 -1.8882,-9.66886 -0.2664,-8.09935 -0.3841,-8.48249 -2.7782,-9.04508 -1.8282,-0.42962 -2.5,-1.24715 -2.5,-3.04239 0,-2.406407 0.1804,-2.46057 9.1292,-2.740848 7.468,-0.233895 9.2365,-0.0064 9.7186,1.25 0.9557,2.490368 -0.3282,4.397568 -3.1824,4.727668 -2.6347,0.30471 -2.6687,0.40886 -2.9541,9.0438 -0.2395,7.24618 -0.5996,8.90189 -2.1119,9.71125 -1.2509,0.6695 -2.3284,0.59558 -3.433,-0.23554 z m 12.0519,-0.13585 c -1.2281,-1.22809 -1.2338,-2.84882 -0.041,-11.75 1.7161,-12.809291 1.722,-12.8254 4.7276,-12.8254 1.8373,0 3.0416,1.021514 4.7156,4 1.2364,2.2 2.5027,3.99878 2.8139,3.9973 0.3113,-10e-4 1.4659,-1.68368 2.5659,-3.7382 2.0839,-3.892275 4.6945,-5.172499 6.8684,-3.368296 0.7141,0.592636 1.8531,5.938876 2.5958,12.184666 1.1255,9.46431 1.115,11.26071 -0.07,12.01131 -1.9397,1.22824 -2.5251,1.13909 -4.3224,-0.65821 -0.8643,-0.86428 -1.5783,-3.00178 -1.5867,-4.75 -0.024,-4.98819 -1.3611,-6.27924 -3.3536,-3.23824 -2.1184,3.23307 -4.3512,3.26812 -5.7988,0.091 -1.45,-3.1824 -2.8323,-2.30139 -2.8323,1.80515 0,3.20086 -2.3207,7.66349 -3.9853,7.66349 -0.4795,0 -1.5129,-0.64107 -2.2964,-1.4246 z"
       id="path893"
       inkscape:connector-curvature="0" />
    <path
       style="fill:#f7af5b"
       d="m 227.5,384.59098 c -7.34926,-1.82105 -12.55054,-4.83727 -17.38406,-10.08102 -7.88699,-8.55638 -11.41099,-21.23041 -9.24789,-33.25996 4.00842,-22.29187 21.78142,-35.08932 43.68994,-31.45896 16.70933,2.76883 27.40433,13.59917 30.64678,31.03462 2.13941,11.5041 -1.93441,26.05124 -9.5241,34.00945 -8.92235,9.35559 -24.12207,13.2394 -38.18067,9.75587 z m 21.05581,-13.47711 c 4.99343,-2.26808 10.73297,-8.79666 12.28363,-13.97231 1.97658,-6.59723 1.44547,-15.99758 -1.22273,-21.64156 C 255.24693,326.25668 248.43096,322 238,322 c -9.92321,0 -16.7689,4.01095 -21.33441,12.5 -1.74602,3.24652 -2.15125,5.69534 -2.15125,13 0,7.30466 0.40523,9.75348 2.15125,13 2.68314,4.98899 6.7839,8.93465 11.33441,10.9057 4.9342,2.13724 15.53943,1.98668 20.55581,-0.29183 z m 100.66671,13.88433 c -6.57169,-1.38777 -14.12357,-5.9886 -17.85827,-10.87978 C 325.66232,366.65083 325,362.61297 325,335.3185 V 311 h 6.42189 6.42189 l 0.32811,24.25 c 0.32096,23.72124 0.38268,24.34746 2.83095,28.71978 3.38913,6.0526 8.70397,8.99223 16.29682,9.01377 9.6265,0.0273 15.62506,-4.74245 17.61121,-14.00358 C 375.50989,356.18684 376,344.24871 376,332.45078 V 311 h 6.56054 6.56054 l -0.31054,26.25 c -0.29502,24.93809 -0.42608,26.50526 -2.62234,31.3574 -2.83602,6.26555 -8.1885,11.63214 -14.28429,14.32196 -5.33063,2.35219 -16.5106,3.37194 -22.68139,2.06884 z M 969.5,384.65506 c -11.41649,-2.97517 -20.46897,-10.85888 -24.63395,-21.45343 -3.16624,-8.05405 -3.17488,-22.32823 -0.0184,-30.35417 2.96289,-7.53362 7.96228,-13.8881 13.83606,-17.58634 7.01991,-4.41986 11.77336,-5.68834 21.31625,-5.68834 9.54289,0 14.29634,1.26848 21.31634,5.68834 10.3698,6.52903 15.9517,17.81025 15.9517,32.23888 0,10.31266 -2.2849,17.72894 -7.6352,24.78231 -3.6932,4.86882 -11.14035,10.18319 -16.45553,11.74293 -5.91802,1.73665 -18.17865,2.06279 -23.67731,0.62982 z m 20.28212,-13.20811 c 4.72015,-1.97172 8.80923,-5.84653 11.55228,-10.94695 1.746,-3.24652 2.1513,-5.69534 2.1513,-13 0,-7.30466 -0.4053,-9.75348 -2.1513,-13 C 996.7689,326.01095 989.92321,322 980,322 c -10.43096,0 -17.24693,4.25668 -21.61671,13.5 -2.6682,5.64398 -3.19931,15.04433 -1.22273,21.64156 1.55066,5.17565 7.2902,11.70423 12.28363,13.97231 5.06493,2.30056 15.22942,2.46703 20.33793,0.33308 z m -889.3083,11.34542 c -0.27516,-0.71706 -0.38184,-17.05119 -0.23706,-36.29806 L 100.5,311.5 h 26 26 v 6 6 l -19,0.5 -19,0.5 -0.28594,9.7273 -0.28594,9.7273 18.28594,0.2727 L 150.5,344.5 v 6 6 l -18,0.5 -18,0.5 -0.5,13 -0.5,13 -6.26294,0.29805 c -4.44921,0.21174 -6.40783,-0.0795 -6.76324,-1.00568 z M 443,347.5 V 311 h 5.31291 c 6.37864,0 4.93527,-1.39468 25.10459,24.25777 8.11159,10.31677 15.16103,18.50271 15.66542,18.19098 C 489.59189,353.13419 490,343.54262 490,331.89529 v -20.98667 l 6.75,0.29569 6.75,0.29569 v 36 36 l -4.16606,0.3034 -4.16607,0.30339 -18.14954,-23.30339 C 467.03608,347.98653 458.33581,337.5 457.6844,337.5 c -0.87087,0 -1.25546,6.15461 -1.45283,23.25 L 455.96314,384 H 449.48157 443 Z m 111.49006,35.33469 c -0.28409,-0.74033 -0.39808,-17.09351 -0.2533,-36.34038 L 554.5,311.5 l 18.65445,-0.27171 c 16.91382,-0.24636 19.17958,-0.0752 24.28231,1.83393 9.01808,3.3741 13.52254,7.45186 18.06324,16.35213 3.88687,7.61868 4,8.12674 4,17.96304 0,9.27045 -0.26207,10.66981 -3.11311,16.62261 -3.76385,7.85869 -8.87509,13.10977 -16.31921,16.76565 -5.401,2.65249 -6.15882,2.74454 -25.31438,3.07473 -15.8643,0.27346 -19.84826,0.0757 -20.26324,-1.00569 z m 36.89392,-13.06453 c 5.28615,-1.57946 12.13273,-8.36706 13.53547,-13.41887 1.54994,-5.58189 1.32133,-14.83912 -0.4725,-19.13341 -3.69596,-8.84785 -10.59928,-12.96657 -23.23651,-13.86359 C 567.16308,322.35718 568,320.8358 568,347.36852 c 0,12.26398 0.3,22.59815 0.66667,22.96481 1.1521,1.1521 18.40837,0.72431 22.71731,-0.56317 z m 70.06426,12.39291 c 0.32066,-1.01031 7.52099,-17.32281 16.00072,-36.25 l 15.4177,-34.41307 7.87488,-0.28734 7.87487,-0.28735 15.7175,35.28735 c 8.64463,19.40804 15.70594,35.84984 15.6918,36.53734 -0.018,0.87546 -2.0719,1.25 -6.85477,1.25 h -6.82907 l -2.37197,-5.25 c -4.16062,-9.20891 -2.96408,-8.75202 -22.87489,-8.73469 -9.67725,0.008 -18.09947,0.34592 -18.71603,0.75 -0.61656,0.40408 -2.53554,3.54719 -4.2644,6.98469 l -3.14337,6.25 h -7.05299 c -6.38922,0 -6.99813,-0.17288 -6.46998,-1.83693 z M 712.23066,356.75 c 1.44836,-1.12248 1.01674,-2.61079 -4.23082,-14.58861 -3.21405,-7.33624 -6.11136,-13.60624 -6.43845,-13.93334 -0.3271,-0.32709 -1.00563,-0.17472 -1.50785,0.33862 C 699.07853,329.56326 688,354.88838 688,356.12063 c 0,1.2275 3.07085,1.64216 13.05887,1.76337 6.28326,0.0762 10.11158,-0.31235 11.17179,-1.134 z M 794,355.23885 c 0,-21.52907 -0.31741,-29.28011 -1.25,-30.52447 -1.00222,-1.33727 -3.33132,-1.72205 -11.75,-1.94113 L 770.5,322.5 770.2001,316.75 769.90019,311 H 799.9501 830 v 5.96725 5.96725 l -11.25,0.28275 -11.25,0.28275 -0.5,30 -0.5,30 -6.25,0.29772 -6.25,0.29771 z M 878,347.5 V 311 h 6.5 6.5 v 36.5 36.5 h -6.5 -6.5 z m 190,0 V 311 h 5.4227 c 6.2989,0 4.8263,-1.45941 26.9905,26.75 7.0222,8.9375 13.168,16.25 13.6573,16.25 0.4894,0 1.0112,-9.5625 1.1596,-21.25 L 1115.5,311.5 h 6.5 6.5 v 36 36 l -4.1364,0.30195 -4.1364,0.30194 -18.1783,-23.30194 c -9.9981,-12.81607 -18.5419,-23.43285 -18.9863,-23.59284 -1.6131,-0.58076 -2.0355,4.68549 -2.0489,25.54089 L 1081,384 h -6.5 -6.5 z M 883.26898,267.93588 c -17.43714,-2.26818 -31.73832,-8.55855 -41.48307,-18.24633 -6.52474,-6.48659 -13.7919,-17.65111 -13.7778,-21.1668 0.006,-1.56263 2.70693,-3.44445 11.87249,-8.27275 6.52541,-3.4375 12.58761,-6.25 13.47156,-6.25 0.88396,0 2.47374,1.69858 3.53286,3.77462 2.54888,4.99622 10.60634,12.4272 16.97326,15.65357 8.48001,4.29714 17.15563,5.84697 29.64172,5.29526 11.55291,-0.51048 18.5045,-2.4131 24.94773,-6.82807 9.34841,-6.40563 11.40971,-19.4324 4.34763,-27.47568 -5.70322,-6.4956 -14.16554,-9.50045 -35.00223,-12.42877 -25.97844,-3.65093 -39.89363,-8.66037 -50.1857,-18.06674 -6.99505,-6.39308 -11.20619,-14.69795 -12.62427,-24.89656 -3.55864,-25.59305 10.83417,-44.89592 39.71766,-53.267198 6.82281,-1.977452 10.05257,-2.258951 25.79918,-2.248605 20.17449,0.01326 25.48826,0.999704 38.25738,7.102103 11.26188,5.38209 26.69035,21.23437 24.96271,25.64841 C 963.18083,127.64013 942.02074,139 939.99358,139 c -0.70739,0 -3.41341,-1.98979 -6.01338,-4.42175 -5.64338,-5.27872 -14.39682,-9.87383 -22.05493,-11.57772 -8.66852,-1.92869 -25.19132,-0.92157 -31.66691,1.93021 -9.3053,4.09794 -14.48784,12.17187 -12.90214,20.10035 1.93112,9.6556 10.85692,13.76214 37.912,17.4424 43.40639,5.90449 61.74998,19.57692 64.32029,47.94125 1.38794,15.31653 -3.46974,29.46649 -13.59021,39.58696 -14.68063,14.68063 -43.36488,21.75382 -72.72932,17.93418 z M 321,266.06398 c -36.48192,-7.70539 -59.67291,-34.28557 -64.0792,-73.44388 -3.73098,-33.15694 10.06847,-65.40436 35.442,-82.82306 12.8347,-8.81091 28.20783,-13.632892 46.33303,-14.532952 17.26529,-0.857358 32.18109,2.289074 46.15231,9.735662 C 392.8935,109.28788 404.5,118.69489 404.5,120.92749 404.5,122.8841 385.99623,141 383.99773,141 c -0.66496,0 -2.57853,-1.15237 -4.25239,-2.56083 -4.11978,-3.46656 -13.10657,-7.9069 -20.1424,-9.95227 -7.57861,-2.20316 -23.08099,-2.1925 -31.66718,0.0218 C 304.29796,134.60459 289,155.64117 289,182.05014 c 0,16.44063 5.08626,29.98438 15.05522,40.08924 10.64933,10.7945 24.02436,15.38601 42.44478,14.57086 15.36177,-0.6798 22.31665,-3.351 37.26255,-14.31161 2.22423,-1.63114 2.44018,-1.48445 12.75,8.66096 5.7681,5.67611 10.48745,11.08709 10.48745,12.02439 0,2.15007 -12.56432,11.75674 -20.5,15.67429 -7.29748,3.6025 -16.97184,6.78054 -24.93366,8.19075 -9.31401,1.64971 -30.78294,1.18133 -40.56634,-0.88504 z M 100.75,263.9199 c -1.644132,-0.95762 -1.749074,-5.93158 -1.734687,-82.21959 0.0084,-44.66017 0.374637,-81.766301 0.813811,-82.458067 0.630196,-0.99265 13.747886,-1.203428 62.234686,-1 L 223.5,98.5 v 15.5 15.5 l -45.75,0.26009 -45.75,0.26009 V 148.01009 166 h 43.3 c 32.34444,0 43.60362,0.30362 44.5,1.2 1.66606,1.66606 1.66606,26.93394 0,28.6 -0.89638,0.89638 -12.15556,1.2 -44.5,1.2 H 132 v 17.5 17.5 h 44.41821 c 24.43002,0 45.13002,0.27314 46,0.60699 1.34307,0.51538 1.58179,2.82438 1.58179,15.3 0,10.09456 -0.37556,15.06857 -1.2,15.89301 -1.56908,1.56908 -119.36324,1.6848 -122.05,0.1199 z m 336.49415,0.25215 c -0.99461,-0.63146 -1.20263,-17.9461 -1,-83.23468 L 436.5,98.5 451.92431,98.223015 c 11.66953,-0.209558 15.62157,0.03387 16.23468,1 0.44571,0.702342 0.81728,31.309545 0.8257,68.016015 l 0.0153,66.73903 41.75,0.26097 41.75,0.26097 0.27851,14.42336 c 0.20987,10.86823 -0.0366,14.62334 -1,15.23469 -1.65647,1.05117 -112.8793,1.06478 -114.53436,0.014 z M 589.75,263.9199 c -1.64384,-0.95745 -1.75,-5.92513 -1.75,-81.8878 0,-44.47769 0.27314,-81.58033 0.60699,-82.450313 0.91015,-2.371813 30.87587,-2.371813 31.78602,0 C 620.72686,100.45177 621,137.56094 621,182.0466 c 0,78.94323 -0.0464,80.90786 -1.93426,81.91822 -2.49094,1.33311 -27.01432,1.29553 -29.31574,-0.0449 z m 74.36657,-0.27944 c -0.82216,-0.99064 -1.05889,-23.57993 -0.87245,-83.25 L 663.5,98.5 706.26244,98.239254 c 47.90533,-0.292105 51.5115,0.05685 64.54326,6.245606 9.61669,4.56695 19.73615,14.20256 24.52818,23.35542 5.54985,10.6003 7.09842,17.11713 7.04792,29.65972 -0.0375,9.30052 -0.46651,12.2301 -2.7771,18.96187 -6.22605,18.13922 -18.29347,30.23007 -36.6047,36.6758 -6.05104,2.13002 -8.57212,2.32516 -36.5,2.82519 l -30,0.53714 -0.25966,23 c -0.22798,20.19457 -0.46475,23.15247 -1.94113,24.25 -2.47492,1.83985 -28.64361,1.74487 -30.18264,-0.10954 z m 89.89465,-80.22861 c 9.12599,-4.22422 14.91871,-12.66983 15.74428,-22.95466 0.99063,-12.34119 -4.94524,-23.30837 -15.19989,-28.08349 -4.9106,-2.28664 -5.82288,-2.35444 -31.80561,-2.36393 L 696,130 v 28.07257 28.07257 l 26.75,-0.32257 c 24.62894,-0.29699 27.1077,-0.48814 31.26122,-2.41072 z M 1007.75,263.9199 c -1.6441,-0.95762 -1.7491,-5.93158 -1.7347,-82.21959 0.01,-44.66017 0.3746,-81.766301 0.8138,-82.458067 0.6302,-0.99265 13.7479,-1.203428 62.2347,-1 L 1130.5,98.5 v 15.5 15.5 l -45.75,0.26009 -45.75,0.26009 V 148.01009 166 h 43.3 c 32.3444,0 43.6036,0.30362 44.5,1.2 1.6661,1.66606 1.6661,26.93394 0,28.6 -0.8964,0.89638 -12.1556,1.2 -44.5,1.2 H 1039 v 17.48991 17.48991 l 45.75,0.26009 45.75,0.26009 0.277,15.42431 c 0.2095,11.66953 -0.034,15.62157 -1,16.23468 -1.9316,1.2258 -119.9088,0.99465 -122.027,-0.23909 z M 61.337238,253.59426 C 52.199972,246.72565 37.673754,231.08218 31.011395,220.93597 20.032669,204.21629 12.598202,185.32002 9.4399868,166.10767 6.9783149,151.13259 7.8637703,126.41632 11.363018,112.42889 14.335192,100.54832 17.402427,92.121335 22.278626,82.43913 38.660783,49.910634 67.359835,25.162899 102.15978,13.556103 c 16.51296,-5.5075559 27.05104,-6.8806951 48.21634,-6.2827145 20.45147,0.577813 31.51989,2.7502805 47.42048,9.3075175 9.50711,3.92063 19.60735,9.348481 18.83431,10.121522 -0.26827,0.268266 -4.45747,-0.670189 -9.30934,-2.085456 -34.19412,-9.974269 -70.21421,-7.321824 -101.23266,7.454564 -15.363578,7.31881 -26.180427,15.003272 -38.597265,27.420109 -20.158552,20.158552 -32.57139,43.302995 -38.169431,71.169085 -2.468185,12.28619 -2.464772,39.40843 0.0065,51.71327 5.133568,25.56074 16.126293,48.06328 33.158132,67.876 3.664223,4.2625 6.223269,7.75 5.686769,7.75 -0.536499,0 -3.612872,-1.98258 -6.836383,-4.40574 z M 1145.607,121.41821 c -0.3339,-0.86998 -0.607,-5.11509 -0.607,-9.43358 0,-7.82221 -0.01,-7.85298 -2.75,-8.16821 -2.1823,-0.2511 -2.75,-0.83252 -2.75,-2.81642 0,-2.481481 0.067,-2.5 9,-2.5 8.9333,0 9,0.01852 9,2.5 0,1.9839 -0.5677,2.56532 -2.75,2.81642 -2.7396,0.31523 -2.75,0.346 -2.75,8.16821 0,9.41885 -0.5073,11.01537 -3.5,11.01537 -1.2573,0 -2.5592,-0.7118 -2.893,-1.58179 z M 1158,120.88415 c 0,-5.88625 2.384,-20.53739 3.5425,-21.770894 1.8259,-1.944094 4.1443,-0.758486 6.5759,3.362904 1.1435,1.93811 2.4018,3.52384 2.7962,3.52384 0.3944,0 1.7288,-1.8 2.9652,-4 2.2044,-3.92221 5.2292,-5.250658 6.6652,-2.927253 0.9705,1.570293 3.528,22.000133 2.8844,23.041433 -0.3011,0.4872 -1.432,0.88582 -2.5132,0.88582 -2.2054,0 -3.9162,-3.49741 -3.9162,-8.00608 0,-4.09014 -1.6477,-4.57579 -3.4831,-1.02662 -1.906,3.68583 -3.8116,3.8761 -5.3349,0.5327 -1.7208,-3.77665 -2.7205,-3.04344 -3.7495,2.75 -0.8368,4.71106 -1.2148,5.28248 -3.6825,5.56642 -2.2785,0.26218 -2.75,-0.0691 -2.75,-1.93227 z"
       id="path891"
       inkscape:connector-curvature="0" />
    <path
       style="fill:#a8a8a7"
       d="m 231,384.37177 c -11.93611,-2.29705 -20.31669,-8.20705 -24.932,-17.58208 -9.7563,-19.81786 -3.10747,-43.58664 14.73934,-52.6914 6.29997,-3.21401 16.05275,-4.50211 23.83132,-3.14753 8.88263,1.54685 15.1287,4.88438 20.66519,11.04229 16.61691,18.48201 9.99825,51.76386 -11.92537,59.96653 -5.48806,2.05335 -17.5097,3.34917 -22.37848,2.41219 z m 21.14208,-13.9027 c 6.87681,-4.83531 10.10448,-11.01487 10.64685,-20.38398 1.04029,-17.97028 -8.32228,-29.18012 -24.44921,-29.27315 C 223.09364,320.72398 213,331.33384 213,347.44759 c 0,11.33477 4.79674,20.21421 13.22748,24.48594 3.59236,1.8202 5.65205,2.1172 12.93826,1.86565 7.78244,-0.26868 9.10512,-0.60812 12.97634,-3.33011 z m 98.26463,13.55406 c -10.26537,-2.17012 -17.69803,-7.789 -21.53716,-16.28149 -2.25888,-4.99684 -2.38414,-6.42091 -2.68195,-30.49164 L 325.87519,312 H 331.4376 337 v 21.8185 c 0,24.8574 0.86953,29.73385 6.2226,34.89744 4.22664,4.07703 7.58102,5.2879 14.5925,5.26761 7.47012,-0.0216 12.81357,-2.99804 16.18206,-9.01377 2.44827,-4.37232 2.50999,-4.99854 2.83095,-28.71978 L 377.15622,312 h 5.48335 5.48334 l -0.31145,25.75 -0.31146,25.75 -2.81356,5.72959 c -3.26104,6.64084 -8.23539,11.13544 -14.65476,13.24136 -5.95259,1.95279 -14.52334,2.63067 -19.62497,1.55218 z m 620.63859,-0.11549 c -6.82795,-1.33846 -14.62126,-5.59431 -18.46295,-10.08246 -12.59422,-14.71352 -12.33269,-38.37687 0.57898,-52.38437 8.03594,-8.71798 20.76267,-12.70421 33.48627,-10.48849 7.98975,1.39135 13.12495,3.87506 18.7697,9.07824 14.3891,13.2634 14.6373,40.67955 0.4963,54.82058 -8.38329,8.38326 -21.25183,11.72567 -34.8683,9.0565 z m 20.64019,-11.99743 C 1000.1025,367.83562 1005,358.84606 1005,347.47108 c 0,-7.18884 -1.2554,-11.40832 -5.0606,-17.00881 -6.35663,-9.35572 -20.84933,-12.58203 -31.73651,-7.06508 -8.89819,4.50905 -13.42511,12.66629 -13.42511,24.19122 0,11.22966 4.89523,20.06076 13.47387,24.30711 5.91436,2.92756 17.40177,2.93476 23.43384,0.0147 z m -890.21027,9.88581 c -0.27633,-0.72009 -0.38379,-16.60628 -0.23882,-35.30264 L 101.5,312.5 l 25.30286,-0.26728 25.30286,-0.26728 -0.30286,5.26728 L 151.5,322.5 l -19,0.5 -19,0.5 v 10.5 10.5 l 18,0.5 18,0.5 v 5 5 l -18,0.5 -18,0.5 -0.5,13 -0.5,13 -5.26118,0.30265 c -3.64204,0.2095 -5.4158,-0.10029 -5.7636,-1.00663 z M 444,347.5 V 312 h 4.83265 4.83266 l 16.91591,21.5 c 10.52513,13.37737 17.5776,21.5 18.66734,21.5 C 490.86284,355 491,353.31624 491,333.5 V 312 h 6.01279 6.0128 l -0.2628,35.25 L 502.5,382.5 h -3.64533 c -3.56807,0 -4.01727,-0.47861 -21.19305,-22.58029 C 468.01037,347.50054 459.43298,336.7743 458.60075,336.08362 455.37577,333.40712 455,335.85701 455,359.55902 V 383 h -5.5 -5.5 z m 111.7414,34.90806 C 555.33363,382.0003 555,365.95789 555,346.75827 v -34.90839 l 19.75,0.32506 c 19.30417,0.31772 19.87899,0.3884 25.46444,3.13121 11.92347,5.85518 18.15043,16.90009 18.15043,32.19385 0,15.65103 -5.67125,25.56941 -18.13039,31.708 l -6.68157,3.292 -18.53506,0.32473 c -10.19428,0.1786 -18.86868,-0.009 -19.27645,-0.41667 z m 40.79345,-13.9235 c 7.01351,-4.3367 10.46855,-11.22629 10.45538,-20.84875 C 606.96675,330.48697 597.16568,322 577.38504,322 566.3637,322 567,320.44566 567,347.36852 c 0,12.81398 0.3375,23.64003 0.75,24.05789 0.4125,0.41785 5.96058,0.60535 12.32907,0.41666 10.83766,-0.3211 11.89133,-0.53615 16.45578,-3.35851 z M 663.04339,381.75 c 0.0239,-0.6875 6.90658,-16.55 15.29492,-35.25 l 15.25154,-34 h 7.24229 7.24229 l 15.45903,34.5 c 8.50247,18.975 15.46073,34.8375 15.46279,35.25 0.002,0.4125 -2.67169,0.75 -5.94167,0.75 h -5.94543 l -3.30457,-6.75 -3.30458,-6.75 -18,-0.28455 c -9.9,-0.1565 -18.9599,-0.0486 -20.13311,0.23972 -1.47948,0.36361 -2.98096,2.51916 -4.90002,7.03454 L 674.69996,383 h -5.84998 c -4.03646,0 -5.83653,-0.38751 -5.80659,-1.25 z m 50.93033,-24.21834 c 1.86374,-2.24567 -10.58046,-30.74333 -13.24197,-30.32457 -1.33851,0.21061 -3.52191,4.08622 -7.77046,13.79291 -6.13933,14.02657 -6.80907,16.49125 -4.71129,17.33772 0.6875,0.27741 6.4824,0.53991 12.87756,0.58333 9.07627,0.0616 11.89493,-0.24323 12.84616,-1.38939 z M 795,354.19113 c 0,-21.49089 -0.31752,-29.23254 -1.25,-30.47675 -1.00222,-1.33727 -3.33132,-1.72205 -11.75,-1.94113 L 771.5,321.5 771.19521,316.75 770.89042,312 H 799.94521 829 v 4.96725 4.96725 L 817.75,322.21725 806.5,322.5 806.23534,352.75 805.97067,383 H 800.48534 795 Z M 879,347.5 V 312 h 5.5 5.5 v 35.5 35.5 h -5.5 -5.5 z m 190,0 V 312 h 4.8528 4.8529 l 17.3336,22.02118 c 9.5335,12.11165 17.8122,21.86194 18.3972,21.66731 0.6965,-0.23174 1.1565,-7.83158 1.333,-22.02118 L 1116.039,312 h 5.9933 5.9933 l -0.2628,35.25 -0.2628,35.25 -2.8105,0.32226 c -1.5457,0.17724 -3.4737,-0.22824 -4.2845,-0.90107 -0.8107,-0.67282 -9.1942,-11.16784 -18.63,-23.32225 -9.4357,-12.15442 -17.6176,-22.4107 -18.1819,-22.79174 -0.5643,-0.38104 -1.6036,-0.21344 -2.3096,0.37245 -0.9762,0.81023 -1.2835,6.54188 -1.2835,23.94279 V 383 h -5.5 -5.5 z M 883.26898,267.93588 c -17.43714,-2.26818 -31.73832,-8.55855 -41.48307,-18.24633 -6.52474,-6.48659 -13.7919,-17.65111 -13.7778,-21.1668 0.006,-1.56263 2.70693,-3.44445 11.87249,-8.27275 6.52541,-3.4375 12.58761,-6.25 13.47156,-6.25 0.88396,0 2.47374,1.69858 3.53286,3.77462 2.54888,4.99622 10.60634,12.4272 16.97326,15.65357 8.48001,4.29714 17.15563,5.84697 29.64172,5.29526 11.55291,-0.51048 18.5045,-2.4131 24.94773,-6.82807 9.34841,-6.40563 11.40971,-19.4324 4.34763,-27.47568 -5.70322,-6.4956 -14.16554,-9.50045 -35.00223,-12.42877 -25.97844,-3.65093 -39.89363,-8.66037 -50.1857,-18.06674 -6.99505,-6.39308 -11.20619,-14.69795 -12.62427,-24.89656 -3.55864,-25.59305 10.83417,-44.89592 39.71766,-53.267198 6.82281,-1.977452 10.05257,-2.258951 25.79918,-2.248605 20.17449,0.01326 25.48826,0.999704 38.25738,7.102103 11.26188,5.38209 26.69035,21.23437 24.96271,25.64841 C 963.18083,127.64013 942.02074,139 939.99358,139 c -0.70739,0 -3.41341,-1.98979 -6.01338,-4.42175 -5.64338,-5.27872 -14.39682,-9.87383 -22.05493,-11.57772 -8.66852,-1.92869 -25.19132,-0.92157 -31.66691,1.93021 -9.3053,4.09794 -14.48784,12.17187 -12.90214,20.10035 1.93112,9.6556 10.85692,13.76214 37.912,17.4424 43.40639,5.90449 61.74998,19.57692 64.32029,47.94125 1.38794,15.31653 -3.46974,29.46649 -13.59021,39.58696 -14.68063,14.68063 -43.36488,21.75382 -72.72932,17.93418 z M 321,266.06398 c -36.48192,-7.70539 -59.67291,-34.28557 -64.0792,-73.44388 -3.73098,-33.15694 10.06847,-65.40436 35.442,-82.82306 12.8347,-8.81091 28.20783,-13.632892 46.33303,-14.532952 17.26529,-0.857358 32.18109,2.289074 46.15231,9.735662 C 392.8935,109.28788 404.5,118.69489 404.5,120.92749 404.5,122.8841 385.99623,141 383.99773,141 c -0.66496,0 -2.57853,-1.15237 -4.25239,-2.56083 -4.11978,-3.46656 -13.10657,-7.9069 -20.1424,-9.95227 -7.57861,-2.20316 -23.08099,-2.1925 -31.66718,0.0218 C 304.29796,134.60459 289,155.64117 289,182.05014 c 0,16.44063 5.08626,29.98438 15.05522,40.08924 10.64933,10.7945 24.02436,15.38601 42.44478,14.57086 15.36177,-0.6798 22.31665,-3.351 37.26255,-14.31161 2.22423,-1.63114 2.44018,-1.48445 12.75,8.66096 5.7681,5.67611 10.48745,11.08709 10.48745,12.02439 0,2.15007 -12.56432,11.75674 -20.5,15.67429 -7.29748,3.6025 -16.97184,6.78054 -24.93366,8.19075 -9.31401,1.64971 -30.78294,1.18133 -40.56634,-0.88504 z M 100.75,263.9199 c -1.644132,-0.95762 -1.749074,-5.93158 -1.734687,-82.21959 0.0084,-44.66017 0.374637,-81.766301 0.813811,-82.458067 0.630196,-0.99265 13.747886,-1.203428 62.234686,-1 L 223.5,98.5 v 15.5 15.5 l -45.75,0.26009 -45.75,0.26009 V 148.01009 166 h 43.3 c 32.34444,0 43.60362,0.30362 44.5,1.2 1.66606,1.66606 1.66606,26.93394 0,28.6 -0.89638,0.89638 -12.15556,1.2 -44.5,1.2 H 132 v 17.5 17.5 h 44.41821 c 24.43002,0 45.13002,0.27314 46,0.60699 1.34307,0.51538 1.58179,2.82438 1.58179,15.3 0,10.09456 -0.37556,15.06857 -1.2,15.89301 -1.56908,1.56908 -119.36324,1.6848 -122.05,0.1199 z m 336.49415,0.25215 c -0.99461,-0.63146 -1.20263,-17.9461 -1,-83.23468 L 436.5,98.5 451.92431,98.223015 c 11.66953,-0.209558 15.62157,0.03387 16.23468,1 0.44571,0.702342 0.81728,31.309545 0.8257,68.016015 l 0.0153,66.73903 41.75,0.26097 41.75,0.26097 0.27851,14.42336 c 0.20987,10.86823 -0.0366,14.62334 -1,15.23469 -1.65647,1.05117 -112.8793,1.06478 -114.53436,0.014 z M 589.75,263.9199 c -1.64384,-0.95745 -1.75,-5.92513 -1.75,-81.8878 0,-44.47769 0.27314,-81.58033 0.60699,-82.450313 0.91015,-2.371813 30.87587,-2.371813 31.78602,0 C 620.72686,100.45177 621,137.56094 621,182.0466 c 0,78.94323 -0.0464,80.90786 -1.93426,81.91822 -2.49094,1.33311 -27.01432,1.29553 -29.31574,-0.0449 z m 74.36657,-0.27944 c -0.82216,-0.99064 -1.05889,-23.57993 -0.87245,-83.25 L 663.5,98.5 706.26244,98.239254 c 47.90533,-0.292105 51.5115,0.05685 64.54326,6.245606 9.61669,4.56695 19.73615,14.20256 24.52818,23.35542 5.54985,10.6003 7.09842,17.11713 7.04792,29.65972 -0.0375,9.30052 -0.46651,12.2301 -2.7771,18.96187 -6.22605,18.13922 -18.29347,30.23007 -36.6047,36.6758 -6.05104,2.13002 -8.57212,2.32516 -36.5,2.82519 l -30,0.53714 -0.25966,23 c -0.22798,20.19457 -0.46475,23.15247 -1.94113,24.25 -2.47492,1.83985 -28.64361,1.74487 -30.18264,-0.10954 z m 89.89465,-80.22861 c 9.12599,-4.22422 14.91871,-12.66983 15.74428,-22.95466 0.99063,-12.34119 -4.94524,-23.30837 -15.19989,-28.08349 -4.9106,-2.28664 -5.82288,-2.35444 -31.80561,-2.36393 L 696,130 v 28.07257 28.07257 l 26.75,-0.32257 c 24.62894,-0.29699 27.1077,-0.48814 31.26122,-2.41072 z M 1007.75,263.9199 c -1.6441,-0.95762 -1.7491,-5.93158 -1.7347,-82.21959 0.01,-44.66017 0.3746,-81.766301 0.8138,-82.458067 0.6302,-0.99265 13.7479,-1.203428 62.2347,-1 L 1130.5,98.5 v 15.5 15.5 l -45.75,0.26009 -45.75,0.26009 V 148.01009 166 h 43.3 c 32.3444,0 43.6036,0.30362 44.5,1.2 1.6661,1.66606 1.6661,26.93394 0,28.6 -0.8964,0.89638 -12.1556,1.2 -44.5,1.2 H 1039 v 17.48991 17.48991 l 45.75,0.26009 45.75,0.26009 0.277,15.42431 c 0.2095,11.66953 -0.034,15.62157 -1,16.23468 -1.9316,1.2258 -119.9088,0.99465 -122.027,-0.23909 z M 55.530654,247.4151 C 34.470342,229.54836 18.31456,202.03058 11.841299,173 8.7516473,159.14387 8.4914946,130.30219 11.338268,117.23182 17.034532,91.078617 29.050247,68.215925 46.750315,49.852168 65.524138,30.374393 85.4692,18.735719 112,11.776586 c 9.96772,-2.6145721 13.78761,-3.0836488 28.66883,-3.52049 19.1295,-0.5615504 31.316,0.8909818 45.83117,5.462705 8.90579,2.804985 21.79452,8.320011 21.09015,9.024379 -0.25033,0.250333 -4.42302,-0.469409 -9.27265,-1.599424 -25.33427,-5.903163 -50.65863,-4.761252 -76.32531,3.441613 -56.879542,18.178249 -95.967076,71.639602 -95.988169,131.286291 -0.01181,33.39352 12.04364,66.90605 33.231217,92.37834 2.173049,2.6125 3.709704,4.75 3.414788,4.75 -0.294916,0 -3.498633,-2.5132 -7.119372,-5.5849 z M 1145.607,121.41821 c -0.3339,-0.86998 -0.607,-5.11509 -0.607,-9.43358 0,-7.82221 -0.01,-7.85298 -2.75,-8.16821 -2.1823,-0.2511 -2.75,-0.83252 -2.75,-2.81642 0,-2.481481 0.067,-2.5 9,-2.5 8.9333,0 9,0.01852 9,2.5 0,1.9839 -0.5677,2.56532 -2.75,2.81642 -2.7396,0.31523 -2.75,0.346 -2.75,8.16821 0,9.41885 -0.5073,11.01537 -3.5,11.01537 -1.2573,0 -2.5592,-0.7118 -2.893,-1.58179 z M 1158,120.88415 c 0,-5.88625 2.384,-20.53739 3.5425,-21.770894 1.8259,-1.944094 4.1443,-0.758486 6.5759,3.362904 1.1435,1.93811 2.4018,3.52384 2.7962,3.52384 0.3944,0 1.7288,-1.8 2.9652,-4 2.2044,-3.92221 5.2292,-5.250658 6.6652,-2.927253 0.9705,1.570293 3.528,22.000133 2.8844,23.041433 -0.3011,0.4872 -1.432,0.88582 -2.5132,0.88582 -2.2054,0 -3.9162,-3.49741 -3.9162,-8.00608 0,-4.09014 -1.6477,-4.57579 -3.4831,-1.02662 -1.906,3.68583 -3.8116,3.8761 -5.3349,0.5327 -1.7208,-3.77665 -2.7205,-3.04344 -3.7495,2.75 -0.8368,4.71106 -1.2148,5.28248 -3.6825,5.56642 -2.2785,0.26218 -2.75,-0.0691 -2.75,-1.93227 z"
       id="path889"
       inkscape:connector-curvature="0" />
    <path
       style="fill:#f69423"
       d="m 231,384.37177 c -11.93611,-2.29705 -20.31669,-8.20705 -24.932,-17.58208 -9.7563,-19.81786 -3.10747,-43.58664 14.73934,-52.6914 6.29997,-3.21401 16.05275,-4.50211 23.83132,-3.14753 8.88263,1.54685 15.1287,4.88438 20.66519,11.04229 16.61691,18.48201 9.99825,51.76386 -11.92537,59.96653 -5.48806,2.05335 -17.5097,3.34917 -22.37848,2.41219 z m 21.14208,-13.9027 c 6.87681,-4.83531 10.10448,-11.01487 10.64685,-20.38398 1.04029,-17.97028 -8.32228,-29.18012 -24.44921,-29.27315 C 223.09364,320.72398 213,331.33384 213,347.44759 c 0,11.33477 4.79674,20.21421 13.22748,24.48594 3.59236,1.8202 5.65205,2.1172 12.93826,1.86565 7.78244,-0.26868 9.10512,-0.60812 12.97634,-3.33011 z m 98.26463,13.55406 c -10.26537,-2.17012 -17.69803,-7.789 -21.53716,-16.28149 -2.25888,-4.99684 -2.38414,-6.42091 -2.68195,-30.49164 L 325.87519,312 H 331.4376 337 v 21.8185 c 0,24.8574 0.86953,29.73385 6.2226,34.89744 4.22664,4.07703 7.58102,5.2879 14.5925,5.26761 7.47012,-0.0216 12.81357,-2.99804 16.18206,-9.01377 2.44827,-4.37232 2.50999,-4.99854 2.83095,-28.71978 L 377.15622,312 h 5.48335 5.48334 l -0.31145,25.75 -0.31146,25.75 -2.81356,5.72959 c -3.26104,6.64084 -8.23539,11.13544 -14.65476,13.24136 -5.95259,1.95279 -14.52334,2.63067 -19.62497,1.55218 z m 620.63859,-0.11549 c -6.82795,-1.33846 -14.62126,-5.59431 -18.46295,-10.08246 -12.59422,-14.71352 -12.33269,-38.37687 0.57898,-52.38437 8.03594,-8.71798 20.76267,-12.70421 33.48627,-10.48849 7.98975,1.39135 13.12495,3.87506 18.7697,9.07824 14.3891,13.2634 14.6373,40.67955 0.4963,54.82058 -8.38329,8.38326 -21.25183,11.72567 -34.8683,9.0565 z m 20.64019,-11.99743 C 1000.1025,367.83562 1005,358.84606 1005,347.47108 c 0,-7.18884 -1.2554,-11.40832 -5.0606,-17.00881 -6.35663,-9.35572 -20.84933,-12.58203 -31.73651,-7.06508 -8.89819,4.50905 -13.42511,12.66629 -13.42511,24.19122 0,11.22966 4.89523,20.06076 13.47387,24.30711 5.91436,2.92756 17.40177,2.93476 23.43384,0.0147 z m -890.21027,9.88581 c -0.27633,-0.72009 -0.38379,-16.60628 -0.23882,-35.30264 L 101.5,312.5 l 25.30286,-0.26728 25.30286,-0.26728 -0.30286,5.26728 L 151.5,322.5 l -19,0.5 -19,0.5 v 10.5 10.5 l 18,0.5 18,0.5 v 5 5 l -18,0.5 -18,0.5 -0.5,13 -0.5,13 -5.26118,0.30265 c -3.64204,0.2095 -5.4158,-0.10029 -5.7636,-1.00663 z M 444,347.5 V 312 h 4.83265 4.83266 l 16.91591,21.5 c 10.52513,13.37737 17.5776,21.5 18.66734,21.5 C 490.86284,355 491,353.31624 491,333.5 V 312 h 6.01279 6.0128 l -0.2628,35.25 L 502.5,382.5 h -3.64533 c -3.56807,0 -4.01727,-0.47861 -21.19305,-22.58029 C 468.01037,347.50054 459.43298,336.7743 458.60075,336.08362 455.37577,333.40712 455,335.85701 455,359.55902 V 383 h -5.5 -5.5 z m 111.7414,34.90806 C 555.33363,382.0003 555,365.95789 555,346.75827 v -34.90839 l 19.75,0.32506 c 19.30417,0.31772 19.87899,0.3884 25.46444,3.13121 11.92347,5.85518 18.15043,16.90009 18.15043,32.19385 0,15.65103 -5.67125,25.56941 -18.13039,31.708 l -6.68157,3.292 -18.53506,0.32473 c -10.19428,0.1786 -18.86868,-0.009 -19.27645,-0.41667 z m 40.79345,-13.9235 c 7.01351,-4.3367 10.46855,-11.22629 10.45538,-20.84875 C 606.96675,330.48697 597.16568,322 577.38504,322 566.3637,322 567,320.44566 567,347.36852 c 0,12.81398 0.3375,23.64003 0.75,24.05789 0.4125,0.41785 5.96058,0.60535 12.32907,0.41666 10.83766,-0.3211 11.89133,-0.53615 16.45578,-3.35851 z M 663.04339,381.75 c 0.0239,-0.6875 6.90658,-16.55 15.29492,-35.25 l 15.25154,-34 h 7.24229 7.24229 l 15.45903,34.5 c 8.50247,18.975 15.46073,34.8375 15.46279,35.25 0.002,0.4125 -2.67169,0.75 -5.94167,0.75 h -5.94543 l -3.30457,-6.75 -3.30458,-6.75 -18,-0.28455 c -9.9,-0.1565 -18.9599,-0.0486 -20.13311,0.23972 -1.47948,0.36361 -2.98096,2.51916 -4.90002,7.03454 L 674.69996,383 h -5.84998 c -4.03646,0 -5.83653,-0.38751 -5.80659,-1.25 z m 50.93033,-24.21834 c 1.86374,-2.24567 -10.58046,-30.74333 -13.24197,-30.32457 -1.33851,0.21061 -3.52191,4.08622 -7.77046,13.79291 -6.13933,14.02657 -6.80907,16.49125 -4.71129,17.33772 0.6875,0.27741 6.4824,0.53991 12.87756,0.58333 9.07627,0.0616 11.89493,-0.24323 12.84616,-1.38939 z M 795,354.19113 c 0,-21.49089 -0.31752,-29.23254 -1.25,-30.47675 -1.00222,-1.33727 -3.33132,-1.72205 -11.75,-1.94113 L 771.5,321.5 771.19521,316.75 770.89042,312 H 799.94521 829 v 4.96725 4.96725 L 817.75,322.21725 806.5,322.5 806.23534,352.75 805.97067,383 H 800.48534 795 Z M 879,347.5 V 312 h 5.5 5.5 v 35.5 35.5 h -5.5 -5.5 z m 190,0 V 312 h 4.8528 4.8529 l 17.3336,22.02118 c 9.5335,12.11165 17.8122,21.86194 18.3972,21.66731 0.6965,-0.23174 1.1565,-7.83158 1.333,-22.02118 L 1116.039,312 h 5.9933 5.9933 l -0.2628,35.25 -0.2628,35.25 -2.8105,0.32226 c -1.5457,0.17724 -3.4737,-0.22824 -4.2845,-0.90107 -0.8107,-0.67282 -9.1942,-11.16784 -18.63,-23.32225 -9.4357,-12.15442 -17.6176,-22.4107 -18.1819,-22.79174 -0.5643,-0.38104 -1.6036,-0.21344 -2.3096,0.37245 -0.9762,0.81023 -1.2835,6.54188 -1.2835,23.94279 V 383 h -5.5 -5.5 z M 883.26898,267.00538 C 865.82713,264.54203 853.30226,259.08032 843.16774,249.51846 836.64417,243.36351 829,232.21508 829,228.85591 c 0,-1.13252 3.7665,-3.69525 11.42377,-7.77275 C 846.70684,217.73742 852.31802,215 852.89304,215 c 0.57503,0 2.57397,2.38938 4.4421,5.30974 8.61832,13.4726 24.99695,20.35718 46.16486,19.4049 21.72787,-0.97747 33.3201,-8.60666 34.27149,-22.55507 0.53982,-7.91438 -2.52069,-13.52616 -9.75555,-17.88787 -7.04454,-4.24698 -13.1109,-5.92022 -29.96205,-8.2642 -26.87615,-3.73846 -41.14661,-8.96979 -50.7989,-18.62208 -6.41326,-6.41326 -9.91507,-13.79676 -11.31413,-23.85566 -3.44602,-24.77591 11.38556,-44.09715 40.05914,-52.185466 9.23981,-2.606389 39.53037,-2.600377 49,0.0097 9.89361,2.726962 20.2306,8.090096 26.3203,13.655736 5.90819,5.39976 12.21681,14.31216 11.24446,15.88545 C 961.79292,127.14408 941.5764,138 940.02252,138 c -0.64923,0 -3.11819,-1.93777 -5.48658,-4.30616 -4.98321,-4.98322 -14.60598,-9.96975 -22.61067,-11.71689 -3.2263,-0.70418 -9.99092,-1.05329 -16.0579,-0.82871 -9.42795,0.349 -11.16085,0.72168 -17.21573,3.70249 -10.54053,5.18909 -15.05868,14.45265 -11.36302,23.29761 3.24212,7.75949 12.33763,11.60096 35.261,14.89242 28.36765,4.07318 43.77583,9.53594 53.43564,18.94488 9.0919,8.85579 13.81552,22.8729 12.64195,37.51436 -1.05193,13.1238 -5.57696,22.59762 -14.83474,31.0587 -11.96228,10.93285 -28.11548,16.32418 -50.79247,16.9526 -7.425,0.20576 -16.30396,-0.0219 -19.73102,-0.50592 z M 321,265.09661 C 291.41349,258.57206 271.54013,240.82025 262.11749,212.5 c -9.2797,-27.89062 -4.85983,-60.12363 11.38116,-83 7.75901,-10.92901 19.60906,-20.56196 32.07799,-26.07631 13.87776,-6.137409 36.6008,-8.954711 52.11919,-6.461969 15.15387,2.434188 31.23621,9.895039 41.80417,19.393619 l 5,4.49404 -9.48025,9.57531 c -5.21414,5.26642 -9.93914,9.57046 -10.5,9.56452 -0.56086,-0.006 -3.9272,-2.04134 -7.48074,-4.52314 -16.82204,-11.74852 -42.73604,-13.06763 -61.52602,-3.13188 -12.24251,6.47359 -22.10024,19.7924 -25.99796,35.12591 -3.26955,12.86234 -1.10939,31.51326 5.05996,43.68789 1.48823,2.93687 5.68017,8.2757 9.31544,11.86406 10.59552,10.45884 22.47527,14.94509 39.64947,14.97317 13.74904,0.0225 26.06858,-3.85714 36.45211,-11.47936 C 382.61878,224.57764 385.44196,223 386.26574,223 387.81135,223 406,241.39012 406,242.95286 c 0,1.39291 -8.25387,8.23468 -14.35821,11.90175 -6.48659,3.89671 -14.79437,7.3817 -23.20329,9.73345 -9.37579,2.62216 -36.53384,2.9133 -47.4385,0.50855 z m -219.8835,-2.45624 c -0.82206,-0.99052 -1.05891,-23.31939 -0.87245,-82.25 L 100.5,99.5 h 61 61 v 14.5 14.5 l -45.5,0.5 -45.5,0.5 v 18.5 18.5 l 44,0.5 44,0.5 v 14 14 l -44,0.5 -44,0.5 v 18 18 l 45.5,0.5 45.5,0.5 0.27851,14.42336 c 0.20987,10.86823 -0.0366,14.62334 -1,15.23469 -0.70318,0.44623 -27.88591,0.81822 -60.40607,0.82664 -48.63874,0.0126 -59.32772,-0.22588 -60.25594,-1.34432 z M 438.25,263.33772 C 437.26427,262.93997 437,245.50912 437,180.89062 V 98.947908 L 452.25,99.223954 467.5,99.5 468,167 l 0.5,67.5 41.5,0.5 41.5,0.5 0.28023,13.4223 c 0.21017,10.0668 -0.0398,13.6254 -1,14.23469 -1.35966,0.86279 -110.40589,1.03792 -112.53023,0.18073 z m 151.8665,-0.69735 c -0.82206,-0.99052 -1.05891,-23.31939 -0.87245,-82.25 L 589.5,99.5 h 15 15 l 0.25595,80.89037 c 0.18646,58.93061 -0.0504,81.25948 -0.87245,82.25 C 618.03612,263.66141 614.45415,264 604.5,264 c -9.95415,0 -13.53612,-0.33859 -14.3835,-1.35963 z m 75.12758,0.53164 c -0.99454,-0.63141 -1.20266,-17.74617 -1,-82.23469 L 664.5,99.5 706.76189,99.239138 c 47.507,-0.293238 51.36118,0.08643 63.99241,6.303692 13.56615,6.67745 23.77538,18.8431 28.49636,33.95717 2.84677,9.11385 3.01807,25.12227 0.36382,34 -6.2029,20.747 -22.0615,35.73237 -42.36876,40.03576 -4.85048,1.02788 -14.0978,1.43439 -32.91393,1.44688 -14.39252,0.01 -26.88002,0.2905 -27.75,0.62435 -1.37808,0.52882 -1.58179,3.52943 -1.58179,23.3 0,16.31679 -0.33717,23.03018 -1.2,23.89301 -1.37286,1.37286 -26.46463,1.69974 -28.55592,0.37201 z m 89.96002,-79.4731 c 6.08558,-2.98843 9.55955,-6.4626 13.0817,-13.08244 3.08335,-5.79512 3.12515,-19.13613 0.0803,-25.61647 -2.78053,-5.91772 -7.70028,-10.75791 -13.86608,-13.64182 -4.85559,-2.2711 -5.78706,-2.33892 -32.25,-2.34841 L 695,129 v 28.33333 c 0,15.58334 0.33174,28.66508 0.73721,29.07054 0.40546,0.40547 12.66796,0.59297 27.25,0.41667 L 749.5,186.5 Z m 252.9124,78.94146 c -0.8221,-0.99052 -1.0589,-23.31939 -0.8724,-82.25 L 1007.5,99.5 1068.75,99.242313 1130,98.984627 v 14.997603 14.99759 l -45.75,0.26009 -45.75,0.26009 v 18.5 18.5 l 44,0.5 44,0.5 v 14 14 l -44,0.5 -44,0.5 v 18 18 l 45.5,0.5 45.5,0.5 0.2785,14.42336 c 0.2099,10.86823 -0.037,14.62334 -1,15.23469 -0.7032,0.44623 -27.8859,0.81822 -60.4061,0.82664 -48.6387,0.0126 -59.3277,-0.22588 -60.2559,-1.34432 z M 55.530654,247.4151 C 34.470342,229.54836 18.31456,202.03058 11.841299,173 8.7516473,159.14387 8.4914946,130.30219 11.338268,117.23182 17.034532,91.078617 29.050247,68.215925 46.750315,49.852168 65.524138,30.374393 85.4692,18.735719 112,11.776586 c 9.96772,-2.6145721 13.78761,-3.0836488 28.66883,-3.52049 19.1295,-0.5615504 31.316,0.8909818 45.83117,5.462705 8.90579,2.804985 21.79452,8.320011 21.09015,9.024379 -0.25033,0.250333 -4.42302,-0.469409 -9.27265,-1.599424 -25.33427,-5.903163 -50.65863,-4.761252 -76.32531,3.441613 -56.879542,18.178249 -95.967076,71.639602 -95.988169,131.286291 -0.01181,33.39352 12.04364,66.90605 33.231217,92.37834 2.173049,2.6125 3.709704,4.75 3.414788,4.75 -0.294916,0 -3.498633,-2.5132 -7.119372,-5.5849 z M 1146.5234,119.75 c -0.2831,-1.2375 -0.6292,-5.38126 -0.7691,-9.20835 -0.2378,-6.50752 -0.4163,-6.99636 -2.7543,-7.54508 -1.375,-0.32271 -2.5,-1.24145 -2.5,-2.04165 0,-1.132186 1.83,-1.519347 8.25,-1.745362 7.6452,-0.269152 8.25,-0.145736 8.25,1.683582 0,1.4101 -0.7856,2.06441 -2.75,2.29044 -2.6796,0.30832 -2.7565,0.49559 -3.0043,7.31642 -0.3255,8.95843 -0.9323,11.5 -2.7457,11.5 -0.804,0 -1.6935,-1.0125 -1.9766,-2.25 z M 1159,120.39105 c 0,-3.80686 2.2756,-19.21899 3.0142,-20.413949 1.2773,-2.066869 3.7472,-0.365042 6.0657,4.179459 l 2.1702,4.254 2.125,-2.64449 c 1.1687,-1.45447 2.8735,-3.68435 3.7884,-4.95528 2.6239,-3.645003 4.029,-1.089935 5.435,9.88346 1.2942,10.10108 1.1833,11.30575 -1.0409,11.30575 -1.4875,0 -2.5159,-3.01396 -2.5593,-7.5 -0.016,-1.65 -0.4953,-3.675 -1.0654,-4.5 -0.9002,-1.30283 -1.1939,-1.25438 -2.2347,0.36856 -0.659,1.02772 -1.9276,2.80513 -2.8192,3.94981 -1.61,2.0671 -1.6325,2.05907 -3.3087,-1.18235 -0.9282,-1.79497 -2.2053,-3.09101 -2.8381,-2.88008 -0.6328,0.21092 -1.6189,2.82367 -2.1914,5.80611 -0.7394,3.8525 -1.5475,5.51845 -2.7908,5.75361 -1.1278,0.21331 -1.75,-0.29319 -1.75,-1.42461 z"
       id="path887"
       inkscape:connector-curvature="0" />
    <path
       style="fill:#807f7d"
       d="M 883.26898,267.00538 C 865.82713,264.54203 853.30226,259.08032 843.16774,249.51846 836.64417,243.36351 829,232.21508 829,228.85591 c 0,-1.13252 3.7665,-3.69525 11.42377,-7.77275 C 846.70684,217.73742 852.31802,215 852.89304,215 c 0.57503,0 2.57397,2.38938 4.4421,5.30974 8.61832,13.4726 24.99695,20.35718 46.16486,19.4049 21.72787,-0.97747 33.3201,-8.60666 34.27149,-22.55507 0.53982,-7.91438 -2.52069,-13.52616 -9.75555,-17.88787 -7.04454,-4.24698 -13.1109,-5.92022 -29.96205,-8.2642 -26.87615,-3.73846 -41.14661,-8.96979 -50.7989,-18.62208 -6.41326,-6.41326 -9.91507,-13.79676 -11.31413,-23.85566 -3.44602,-24.77591 11.38556,-44.09715 40.05914,-52.185466 9.23981,-2.606389 39.53037,-2.600377 49,0.0097 9.89361,2.726962 20.2306,8.090096 26.3203,13.655736 5.90819,5.39976 12.21681,14.31216 11.24446,15.88545 C 961.79292,127.14408 941.5764,138 940.02252,138 c -0.64923,0 -3.11819,-1.93777 -5.48658,-4.30616 -4.98321,-4.98322 -14.60598,-9.96975 -22.61067,-11.71689 -3.2263,-0.70418 -9.99092,-1.05329 -16.0579,-0.82871 -9.42795,0.349 -11.16085,0.72168 -17.21573,3.70249 -10.54053,5.18909 -15.05868,14.45265 -11.36302,23.29761 3.24212,7.75949 12.33763,11.60096 35.261,14.89242 28.36765,4.07318 43.77583,9.53594 53.43564,18.94488 9.0919,8.85579 13.81552,22.8729 12.64195,37.51436 -1.05193,13.1238 -5.57696,22.59762 -14.83474,31.0587 -11.96228,10.93285 -28.11548,16.32418 -50.79247,16.9526 -7.425,0.20576 -16.30396,-0.0219 -19.73102,-0.50592 z M 321,265.09661 C 291.41349,258.57206 271.54013,240.82025 262.11749,212.5 c -9.2797,-27.89062 -4.85983,-60.12363 11.38116,-83 7.75901,-10.92901 19.60906,-20.56196 32.07799,-26.07631 13.87776,-6.137409 36.6008,-8.954711 52.11919,-6.461969 15.15387,2.434188 31.23621,9.895039 41.80417,19.393619 l 5,4.49404 -9.48025,9.57531 c -5.21414,5.26642 -9.93914,9.57046 -10.5,9.56452 -0.56086,-0.006 -3.9272,-2.04134 -7.48074,-4.52314 -16.82204,-11.74852 -42.73604,-13.06763 -61.52602,-3.13188 -12.24251,6.47359 -22.10024,19.7924 -25.99796,35.12591 -3.26955,12.86234 -1.10939,31.51326 5.05996,43.68789 1.48823,2.93687 5.68017,8.2757 9.31544,11.86406 10.59552,10.45884 22.47527,14.94509 39.64947,14.97317 13.74904,0.0225 26.06858,-3.85714 36.45211,-11.47936 C 382.61878,224.57764 385.44196,223 386.26574,223 387.81135,223 406,241.39012 406,242.95286 c 0,1.39291 -8.25387,8.23468 -14.35821,11.90175 -6.48659,3.89671 -14.79437,7.3817 -23.20329,9.73345 -9.37579,2.62216 -36.53384,2.9133 -47.4385,0.50855 z m -219.8835,-2.45624 c -0.82206,-0.99052 -1.05891,-23.31939 -0.87245,-82.25 L 100.5,99.5 h 61 61 v 14.5 14.5 l -45.5,0.5 -45.5,0.5 v 18.5 18.5 l 44,0.5 44,0.5 v 14 14 l -44,0.5 -44,0.5 v 18 18 l 45.5,0.5 45.5,0.5 0.27851,14.42336 c 0.20987,10.86823 -0.0366,14.62334 -1,15.23469 -0.70318,0.44623 -27.88591,0.81822 -60.40607,0.82664 -48.63874,0.0126 -59.32772,-0.22588 -60.25594,-1.34432 z M 438.25,263.33772 C 437.26427,262.93997 437,245.50912 437,180.89062 V 98.947908 L 452.25,99.223954 467.5,99.5 468,167 l 0.5,67.5 41.5,0.5 41.5,0.5 0.28023,13.4223 c 0.21017,10.0668 -0.0398,13.6254 -1,14.23469 -1.35966,0.86279 -110.40589,1.03792 -112.53023,0.18073 z m 151.8665,-0.69735 c -0.82206,-0.99052 -1.05891,-23.31939 -0.87245,-82.25 L 589.5,99.5 h 15 15 l 0.25595,80.89037 c 0.18646,58.93061 -0.0504,81.25948 -0.87245,82.25 C 618.03612,263.66141 614.45415,264 604.5,264 c -9.95415,0 -13.53612,-0.33859 -14.3835,-1.35963 z m 75.12758,0.53164 c -0.99454,-0.63141 -1.20266,-17.74617 -1,-82.23469 L 664.5,99.5 706.76189,99.239138 c 47.507,-0.293238 51.36118,0.08643 63.99241,6.303692 13.56615,6.67745 23.77538,18.8431 28.49636,33.95717 2.84677,9.11385 3.01807,25.12227 0.36382,34 -6.2029,20.747 -22.0615,35.73237 -42.36876,40.03576 -4.85048,1.02788 -14.0978,1.43439 -32.91393,1.44688 -14.39252,0.01 -26.88002,0.2905 -27.75,0.62435 -1.37808,0.52882 -1.58179,3.52943 -1.58179,23.3 0,16.31679 -0.33717,23.03018 -1.2,23.89301 -1.37286,1.37286 -26.46463,1.69974 -28.55592,0.37201 z m 89.96002,-79.4731 c 6.08558,-2.98843 9.55955,-6.4626 13.0817,-13.08244 3.08335,-5.79512 3.12515,-19.13613 0.0803,-25.61647 -2.78053,-5.91772 -7.70028,-10.75791 -13.86608,-13.64182 -4.85559,-2.2711 -5.78706,-2.33892 -32.25,-2.34841 L 695,129 v 28.33333 c 0,15.58334 0.33174,28.66508 0.73721,29.07054 0.40546,0.40547 12.66796,0.59297 27.25,0.41667 L 749.5,186.5 Z m 252.9124,78.94146 c -0.8221,-0.99052 -1.0589,-23.31939 -0.8724,-82.25 L 1007.5,99.5 1068.75,99.242313 1130,98.984627 v 14.997603 14.99759 l -45.75,0.26009 -45.75,0.26009 v 18.5 18.5 l 44,0.5 44,0.5 v 14 14 l -44,0.5 -44,0.5 v 18 18 l 45.5,0.5 45.5,0.5 0.2785,14.42336 c 0.2099,10.86823 -0.037,14.62334 -1,15.23469 -0.7032,0.44623 -27.8859,0.81822 -60.4061,0.82664 -48.6387,0.0126 -59.3277,-0.22588 -60.2559,-1.34432 z M 1146.5234,119.75 c -0.2831,-1.2375 -0.6292,-5.38126 -0.7691,-9.20835 -0.2378,-6.50752 -0.4163,-6.99636 -2.7543,-7.54508 -1.375,-0.32271 -2.5,-1.24145 -2.5,-2.04165 0,-1.132186 1.83,-1.519347 8.25,-1.745362 7.6452,-0.269152 8.25,-0.145736 8.25,1.683582 0,1.4101 -0.7856,2.06441 -2.75,2.29044 -2.6796,0.30832 -2.7565,0.49559 -3.0043,7.31642 -0.3255,8.95843 -0.9323,11.5 -2.7457,11.5 -0.804,0 -1.6935,-1.0125 -1.9766,-2.25 z M 1159,120.39105 c 0,-3.80686 2.2756,-19.21899 3.0142,-20.413949 1.2773,-2.066869 3.7472,-0.365042 6.0657,4.179459 l 2.1702,4.254 2.125,-2.64449 c 1.1687,-1.45447 2.8735,-3.68435 3.7884,-4.95528 2.6239,-3.645003 4.029,-1.089935 5.435,9.88346 1.2942,10.10108 1.1833,11.30575 -1.0409,11.30575 -1.4875,0 -2.5159,-3.01396 -2.5593,-7.5 -0.016,-1.65 -0.4953,-3.675 -1.0654,-4.5 -0.9002,-1.30283 -1.1939,-1.25438 -2.2347,0.36856 -0.659,1.02772 -1.9276,2.80513 -2.8192,3.94981 -1.61,2.0671 -1.6325,2.05907 -3.3087,-1.18235 -0.9282,-1.79497 -2.2053,-3.09101 -2.8381,-2.88008 -0.6328,0.21092 -1.6189,2.82367 -2.1914,5.80611 -0.7394,3.8525 -1.5475,5.51845 -2.7908,5.75361 -1.1278,0.21331 -1.75,-0.29319 -1.75,-1.42461 z"
       id="path885"
       inkscape:connector-curvature="0" />
    <path
       style="fill:#595857"
       d="m 335.5,266.41937 c -18.8382,-2.60336 -26.89982,-4.85022 -37.30958,-10.39856 -17.92366,-9.55321 -31.34681,-27.35993 -37.33003,-49.52081 -3.15114,-11.67129 -3.16039,-36.5168 -0.0179,-48 8.13503,-29.72663 26.9968,-49.36813 55.85002,-58.15881 8.00902,-2.440105 10.34862,-2.69052 25.80747,-2.762278 19.1376,-0.08883 24.61932,0.933205 37.41125,6.975148 7.68697,3.63074 18.15881,10.61861 21.52906,14.36635 l 1.9403,2.15764 -8.91946,8.96098 C 389.55545,134.96756 384.92228,139 384.16521,139 c -0.75708,0 -2.74601,-1.15237 -4.41987,-2.56083 -15.739,-13.24349 -46.27565,-15.22838 -65.598,-4.26389 -22.54196,12.79147 -32.76652,43.1882 -23.67172,70.37397 3.28442,9.81764 6.96928,15.68989 14.04425,22.3811 10.32343,9.76346 25.47476,14.67067 42.48013,13.75845 11.85384,-0.63587 21.61528,-3.95554 31.82497,-10.82302 l 7.32497,-4.92709 7.52381,7.28066 c 4.1381,4.00436 8.43062,8.54709 9.53893,10.09497 l 2.0151,2.81431 -2.36389,2.52153 c -6.91983,7.38125 -24.15143,15.96534 -37.82081,18.84078 -7.39972,1.55658 -24.26686,2.65758 -29.54308,1.92843 z M 878,265.38345 C 862.6454,262.57168 850.75884,256.65438 841.8097,247.36738 836.58393,241.94432 830,231.59483 830,228.80334 c 0,-1.31872 3.17386,-3.38347 11.61916,-7.55883 10.90168,-5.38979 11.68898,-5.62983 12.75,-3.88741 6.24463,10.25514 15.22895,17.19584 27.08931,20.92744 9.07401,2.85494 27.93333,3.0789 36.66547,0.43542 23.48789,-7.11049 28.04249,-31.43181 7.81832,-41.74941 -5.50247,-2.80716 -13.14832,-4.60537 -29.66012,-6.97572 -31.79716,-4.56463 -48.03893,-12.58994 -55.24515,-27.29747 -5.6332,-11.49708 -6.36675,-25.3955 -1.96174,-37.16894 2.45014,-6.54858 10.22056,-15.47625 17.42475,-20.0198 21.97988,-13.862328 58.83467,-14.943456 83.60517,-2.45255 9.87035,4.97729 23.47922,19.57131 21.39495,22.94374 C 960.76569,127.18814 941.60541,137 940.01931,137 c -0.55936,0 -2.79459,-1.72508 -4.96718,-3.8335 -5.06114,-4.91167 -13.79497,-9.54106 -22.05213,-11.68881 -8.83269,-2.29743 -24.22451,-1.61036 -32.17682,1.43634 -13.9451,5.34266 -19.64702,18.87315 -12.15574,28.8452 4.60849,6.13462 13.10539,9.09922 35.07941,12.23936 18.94196,2.70684 31.70656,6.07964 40.50335,10.70223 16.29756,8.56412 23.7498,21.49993 23.7498,41.22557 0,13.72594 -4.72602,24.78889 -14.47883,33.8929 -7.16042,6.68408 -16.37788,11.42201 -27.79075,14.28491 -11.2339,2.818 -35.74072,3.47482 -47.73042,1.27925 z M 101.66667,262.33333 C 101.3,261.96667 101,225.29167 101,180.83333 V 100 h 60.5 60.5 v 14 14 h -44.8 c -33.51111,0 -45.10238,0.30238 -46,1.2 -1.68814,1.68814 -1.68814,35.91186 0,37.6 0.89638,0.89638 12.15556,1.2 44.5,1.2 H 219 v 13.5 13.5 h -43.3 c -32.34444,0 -43.60362,0.30362 -44.5,1.2 -1.68626,1.68626 -1.68626,34.91374 0,36.6 0.89762,0.89762 12.48889,1.2 46,1.2 H 222 v 14.5 14.5 h -59.83333 c -32.90834,0 -60.13334,-0.3 -60.5,-0.66667 z m 335.79674,-0.57506 C 437.19932,261.06622 437.09952,224.5 437.24162,180.5 l 0.25838,-80 14.75,-0.27673 14.75,-0.276736 v 66.904286 c 0,54.66981 0.24482,67.10747 1.33878,68.01538 0.92189,0.7651 14.07867,1.19248 42.25,1.37245 L 551.5,236.5 v 13 13 l -56.77821,0.25827 c -44.89085,0.2042 -56.87874,-0.005 -57.25838,-1 z m 153.23022,0.60202 C 590.31213,261.9788 590,225.29167 590,180.83333 V 100 h 14.50588 14.50588 l -0.25588,81.25 -0.25588,81.25 -13.55637,0.27696 c -7.45601,0.15233 -13.86851,-0.0352 -14.25,-0.41667 z M 665,181.52746 V 100 l 42.75,0.0174 c 47.31904,0.0192 51.15614,0.39309 63.03686,6.142 9.11479,4.41051 19.54642,14.92673 24.04692,24.24191 8.08919,16.7431 8.11191,36.41004 0.0616,53.34445 -4.33398,9.11686 -15.27089,20.13717 -24.03193,24.21518 -12.08828,5.62673 -15.95078,6.18869 -47.36346,6.89086 l -29,0.64824 -0.5,23.5 -0.5,23.5 -14.25,0.27746 -14.25,0.27745 V 181.5275 Z m 88.13341,4.09426 c 6.56965,-2.45333 12.29044,-7.74819 15.55564,-14.39747 2.3932,-4.87355 2.8029,-6.91316 2.75676,-13.72425 -0.0632,-9.32249 -2.67272,-15.57841 -9.10407,-21.82517 C 755.14877,128.68831 751.49213,128 721.56948,128 c -23.11028,0 -26.43024,0.19477 -26.96249,1.58179 -0.33385,0.86998 -0.60699,13.82998 -0.60699,28.8 0,20.42942 0.31178,27.53551 1.25,28.49036 0.9685,0.98566 7.10528,1.18293 27.25,0.876 21.50755,-0.3277 26.80059,-0.69512 30.63341,-2.12643 z m 255.54099,76.71935 C 1008.3035,261.97015 1008,225.28818 1008,180.82559 V 99.984508 l 60.75,0.257742 60.75,0.25775 v 13.5 13.5 l -44.9101,0.26041 c -31.1295,0.1805 -45.3212,0.60163 -46.25,1.37244 -1.8198,1.51034 -1.9474,35.85963 -0.1399,37.66715 0.8964,0.89638 12.1556,1.2 44.5,1.2 h 43.3 v 13.5 13.5 h -43.3 c -32.3444,0 -43.6036,0.30362 -44.5,1.2 -1.8055,1.80549 -1.6782,35.15823 0.1399,36.66715 0.9288,0.77081 15.1205,1.19194 46.25,1.37244 L 1129.5,234.5 v 14 14 l -60.0756,0.25774 c -33.0416,0.14175 -60.3791,-0.0457 -60.75,-0.41667 z M 1147,112.7 c 0,-8.56452 -0.8382,-10.7 -4.2,-10.7 -0.99,0 -1.8,-0.45 -1.8,-1 0,-0.57778 3.1667,-1 7.5,-1 4.3333,0 7.5,0.42222 7.5,1 0,0.55 -0.81,1 -1.8,1 -3.3618,0 -4.2,2.13548 -4.2,10.7 0,6.71111 -0.2871,8.3 -1.5,8.3 -1.2129,0 -1.5,-1.58889 -1.5,-8.3 z m 13.4028,1.55 c 1.5979,-15.884821 2.6726,-17.467218 6.7918,-10 1.2894,2.3375 2.9153,4.25 3.613,4.25 0.6977,0 2.2782,-1.8 3.5123,-4 3.0125,-5.370564 4.9875,-5.199873 5.7852,0.5 1.9905,14.22326 2.0836,16.22958 0.7327,15.77927 -0.7467,-0.2489 -1.6757,-2.81843 -2.1099,-5.83599 -0.9097,-6.32054 -2.3864,-8.33755 -4.0815,-5.57472 -0.6305,1.02772 -1.853,2.77694 -2.7167,3.88718 -1.5369,1.9757 -1.6166,1.94004 -3.7508,-1.67708 -2.5422,-4.30866 -3.8671,-3.96841 -4.6978,1.20642 -1.1183,6.9668 -1.5192,8.21492 -2.6382,8.21492 -0.782,0 -0.9145,-2.03345 -0.4401,-6.75 z"
       id="path883"
       inkscape:connector-curvature="0" />
    <path
       style="fill:#3d3c3a"
       d="M 329.59694,264.86122 C 318.6921,263.46193 311.22431,261.22876 301,256.30957 c -8.12335,-3.90835 -10.8194,-5.8922 -18.60489,-13.69013 -7.67764,-7.68991 -9.8346,-10.60863 -13.7599,-18.61944 -7.39611,-15.09408 -8.97644,-22.47918 -8.98756,-42 -0.009,-15.14391 0.21535,-17.23563 2.72524,-25.45066 7.29015,-23.86108 20.72061,-40.20026 41.12711,-50.03425 14.07098,-6.780877 20.15849,-7.999586 40,-8.007936 19.34931,-0.0081 25.61199,1.352836 39.5,8.583976 7.16233,3.72924 19,12.30343 19,13.76197 0,0.38008 -3.83289,4.50403 -8.51752,9.16433 -8.27631,8.23332 -8.58513,8.43093 -10.90481,6.97792 -9.76446,-6.1163 -12.60616,-7.61975 -18.4581,-9.76557 -8.79986,-3.22677 -23.67595,-4.05473 -33.85946,-1.8845 -22.55968,4.80774 -38.07401,20.96821 -42.82491,44.60851 -4.33296,21.56066 3.70755,46.19818 18.90272,57.92117 19.98887,15.4213 51.12017,15.89747 72.58549,1.11025 l 6.86856,-4.73168 9.35402,9.44361 9.35401,9.44362 -4,3.51962 c -16.62695,14.63011 -43.99014,21.65425 -70.90306,18.20084 z m 548.23754,-0.36625 C 862.86521,261.66621 851.02835,255.77266 842.31102,246.80789 837.70004,242.06603 831,231.53094 831,229.02255 c 0,-2.05543 22.10326,-13.08906 22.71175,-11.33738 0.94388,2.71717 6.37944,9.25566 10.50422,12.6356 10.55361,8.64789 27.84945,12.99951 43.46201,10.935 11.59197,-1.53286 15.20941,-2.65964 20.97271,-6.5327 14.62779,-9.8302 14.66105,-28.69394 0.0654,-37.10938 -6.64172,-3.82943 -12.84095,-5.51161 -30.11825,-8.17266 -20.87001,-3.2144 -27.3678,-4.85736 -37.09786,-9.38015 -17.30737,-8.04492 -25.8212,-22.76168 -24.21961,-41.86534 0.91833,-10.95387 4.02836,-17.69805 11.62816,-25.21599 7.72585,-7.64264 16.01922,-12.00663 28.87541,-15.194333 11.53258,-2.85951 31.99468,-3.05543 43.71604,-0.418572 10.00986,2.251835 22.58505,8.195605 28.66834,13.550335 4.33508,3.81588 10.83166,12.36898 10.83166,14.26044 0,0.459 -4.67829,3.16121 -10.3962,6.00491 l -10.3962,5.17038 -4.55946,-4.0134 c -6.22803,-5.48213 -14.99712,-9.97997 -23.25117,-11.92598 -9.2666,-2.18474 -23.64491,-1.45124 -31.80382,1.62246 -12.27573,4.62462 -18.86875,15.71712 -15.14191,25.4757 3.64968,9.55656 11.95667,13.44048 36.52941,17.07924 21.68579,3.21127 30.78878,5.53778 40.65319,10.39004 10.11277,4.97441 18.09718,13.0792 21.41181,21.73465 3.10964,8.12014 3.83865,23.71511 1.48912,31.85521 -5.04106,17.46507 -18.07626,28.91202 -39.41699,34.61432 -10.14319,2.71028 -37.01515,3.43937 -48.2833,1.31002 z M 102,181.5 V 101 h 59.5 59.5 v 12.97036 12.97035 l -45.037,0.27965 c -38.73714,0.24052 -45.16957,0.48946 -45.98469,1.77964 -0.52123,0.825 -0.95458,9.45536 -0.963,19.17857 -0.0128,14.75223 0.24481,17.93869 1.55612,19.25 1.37976,1.37977 6.80736,1.57143 44.5,1.57143 H 218 v 12.5 12.5 h -42.92857 c -37.69264,0 -43.12024,0.19166 -44.5,1.57143 -2.33104,2.33104 -2.33104,35.5261 0,37.85714 1.38141,1.38141 6.94372,1.57143 46,1.57143 L 221,235 V 248.5 262 H 161.5 102 Z m 336.67498,79.84165 C 438.30374,260.97041 438,224.74167 438,180.83333 V 101 h 14 14 v 66.42857 c 0,59.05628 0.1744,66.60297 1.57143,68 1.37742,1.37742 6.62834,1.57143 42.53078,1.57143 h 40.95935 l -0.28078,12.25 -0.28078,12.25 -55.57502,0.25832 c -30.56626,0.14207 -55.87876,-0.0454 -56.25,-0.41667 z M 591,181.5 V 101 H 604.5 618 V 181.5 262 H 604.5 591 Z m 75,0 V 101 l 42.75,0.0148 c 34.71072,0.012 43.9624,0.30055 49.19711,1.53438 30.6917,7.23408 48.25984,37.86197 40.07474,69.8654 -2.70332,10.56988 -6.30004,16.8743 -14.18713,24.86755 -7.09416,7.18964 -16.20871,12.27274 -26.33472,14.68664 -2.93138,0.6988 -16.99797,1.41387 -34,1.72838 -19.96724,0.36936 -29.22884,0.88942 -29.73469,1.66966 -0.40408,0.62327 -0.74158,11.37071 -0.75,23.88321 L 693,262 H 679.5 666 Z m 87.19453,5.06896 c 6.53503,-2.39316 13.16965,-8.57005 16.48616,-15.34875 2.31473,-4.73115 2.79299,-7.01562 2.79299,-13.34111 0,-6.74496 -0.40543,-8.42649 -3.48684,-14.46142 -2.33084,-4.56495 -4.91049,-7.91267 -7.78097,-10.0977 C 753.74059,127.63738 749.67103,127 720.85368,127 c -24.46775,0 -25.83613,0.0987 -26.8185,1.93426 -1.18877,2.22124 -1.44005,55.91367 -0.26987,57.6658 1.44734,2.16711 4.07426,2.34867 29.23469,2.02058 21.03364,-0.27428 26.32225,-0.63364 30.19453,-2.05168 z M 1009,181.50787 V 101 h 60 60 v 12.97065 12.97064 l -45.537,0.27936 c -39.1818,0.24036 -45.6692,0.48869 -46.4847,1.77935 -0.5212,0.825 -0.9546,9.45536 -0.963,19.17857 -0.013,14.75223 0.2448,17.93869 1.5561,19.25 1.3798,1.37977 6.8074,1.57143 44.5,1.57143 H 1125 v 12.5 12.5 h -42.9286 c -37.6926,0 -43.1202,0.19166 -44.5,1.57143 -1.3078,1.30786 -1.5714,4.48268 -1.5714,18.92857 0,14.44589 0.2636,17.62071 1.5714,18.92857 1.382,1.38197 6.9918,1.57143 46.5291,1.57143 h 44.9576 l -0.2791,13.25 -0.279,13.25 -59.75,0.25787 -59.75,0.25787 z m 139.189,-69.79009 c -0.174,-8.08553 -0.3675,-8.85397 -2.439,-9.68662 -1.7859,-0.71784 -1.2187,-0.90296 2.75,-0.89749 3.43,0.005 4.372,0.25073 3,0.78342 -1.7271,0.67057 -2.0766,1.99137 -2.561,9.67972 l -0.5611,8.90319 z m 12.9939,2.03222 c 2.0013,-14.531789 2.3158,-15.121498 5.0291,-9.43164 1.5286,3.20546 1.5115,3.31603 -0.5023,3.25 -2.3375,-0.0767 -3.4482,2.5944 -3.61,8.68164 -0.055,2.0625 -0.4772,3.75 -0.9386,3.75 -0.4614,0 -0.4516,-2.8125 0.022,-6.25 z m 19.012,3.75 c 0.02,-1.65 0.2445,-2.20394 0.4981,-1.23097 0.2535,0.97297 0.2369,2.32297 -0.037,3 -0.2739,0.67703 -0.4813,-0.11903 -0.461,-1.76903 z M 1179,111.28911 c 0,-3.01621 -2.075,-5.8808 -3.342,-4.61377 -1.0342,1.03424 -0.7686,-1.60008 0.3772,-3.74108 0.5693,-1.06384 1.4252,-1.93426 1.9018,-1.93426 1.0126,0 2.5635,11.8328 1.6683,12.72803 -0.3329,0.33291 -0.6053,-0.7646 -0.6053,-2.43892 z m -9.3333,1.04422 c -1.2613,-1.26128 -0.6631,-2.33333 1.3019,-2.33333 1.3391,0 1.7845,0.47971 1.393,1.5 -0.6156,1.60429 -1.615,1.91331 -2.6949,0.83333 z"
       id="path881"
       inkscape:connector-curvature="0" />
  </g>
</svg>
